<?xml version="1.0" encoding="utf-8"?>
<!-- Generator: Adobe Illustrator 23.0.6, SVG Export Plug-In . SVG Version: 6.00 Build 0)  -->
<svg version="1.1" id="Layer_1" xmlns="http://www.w3.org/2000/svg" xmlns:xlink="http://www.w3.org/1999/xlink" x="0px" y="0px"
	 viewBox="0 0 1440 2016" style="enable-background:new 0 0 1440 2016;" xml:space="preserve">
<style type="text/css">
	.st0{fill:#488C40;}
	.st1{fill:#60903E;}
	.st2{fill:#74A734;}
</style>
<g>
	<g>
		<path class="st0" d="M296.1,117.95c0.31-0.85,0.64-1.69,0.99-2.53c-0.58,1.36-1.15,2.73-1.73,4.09c0.32-0.75,0.65-1.49,1-2.23
			c1.25-1.97,1.93-4.09,2.03-6.37c0.51-2.28,0.41-4.55-0.31-6.83c-0.53-2.23-1.55-4.17-3.07-5.82c-1.21-1.86-2.81-3.34-4.81-4.41
			c-1.36-0.58-2.73-1.15-4.09-1.73c-3.04-0.82-6.07-0.82-9.11,0c-1.36,0.58-2.73,1.15-4.09,1.73c-2.57,1.52-4.62,3.57-6.14,6.14
			c-1,2.1-1.87,4.27-2.77,6.4c-0.34,0.81-0.66,1.62-0.96,2.44c-0.71,2.28-0.82,4.55-0.31,6.83c0.1,2.28,0.78,4.4,2.03,6.37
			c1.08,2,2.55,3.6,4.41,4.81c1.65,1.51,3.6,2.54,5.82,3.07c1.52,0.2,3.04,0.41,4.55,0.61c3.09-0.01,5.97-0.79,8.65-2.34
			c1.16-0.89,2.31-1.79,3.47-2.68C293.82,123.37,295.28,120.85,296.1,117.95L296.1,117.95z"/>
	</g>
</g>
<g>
	<g>
		<path class="st0" d="M263.16,153.71c-0.1,0.94-0.21,1.88-0.32,2.83c-0.39,3.11,0.32-2.02-0.16,1.08c-0.29,1.87-0.6,3.74-0.94,5.6
			c-0.79,4.34-1.73,8.65-2.79,12.94c-2.06,8.26-4.62,16.4-7.57,24.39c-0.66,1.78-1.34,3.55-2.03,5.31
			c-0.46,1.17-0.93,2.35-1.42,3.51c0.16-0.39,0.65-1.53-0.12,0.27c-1.75,4.06-3.61,8.08-5.55,12.05
			c-3.75,7.68-7.81,15.2-12.14,22.57c-18.11,30.88-40.48,58.92-61.05,88.14c-20.25,28.76-38.41,58.8-51.15,91.7
			c-13.3,34.38-20.29,70.84-23.83,107.44c-7.26,75.01,1.24,150.43,6,225.32c2.4,37.81,3.89,75.73,2.35,113.6
			c-1.53,37.43-5.51,72.88-12.25,109.04c-13.27,71.21-36.09,140.44-68.02,204.31c-3.95,7.9-8.05,15.73-12.26,23.5
			c-4.27,7.87-2.21,19.02,6.14,23.44c8.07,4.27,18.77,2.21,23.44-6.14c22.37-40.11,48.82-75.15,77.98-109.63
			c7.45-8.81,16.04-16.35,23.95-24.76c7.75-8.24,15.61-16.37,23.57-24.41c15.97-16.12,32.33-31.85,48.88-47.38
			c8.55-8.02,17.21-15.91,25.76-23.92c3.89-3.64,7.6-7.49,11.37-11.26c1.88-1.88,3.84-3.69,5.64-5.64c2.73-2.96,1.06-1.23,0.12-0.52
			c1.2-0.92,2.54-1.69,3.78-2.57c4.66-3.31,7.99-7.49,12.2-11.27c1.9-1.71,3.93-3.26,5.88-4.92c0.99-0.85,1.45-1.26,2.25-2.11
			c1.23-1.46,2.37-2.98,3.43-4.56c-1.06,1.01-2.13,2.01-3.19,3.02c1.82-2.11,5.28-4.16,7.51-6.05c0.88-0.75,1.77-1.51,2.66-2.25
			c-2.37,1.98,3.19-2.54,2.84-2.25c4.72-3.93,9.01-8.52,13.36-12.86c16.76-16.71,33.15-33.48,49.19-50.89
			c3.96-4.3,7.95-8.56,12.02-12.75c1.79-1.84,3.71-3.6,5.36-5.57c1.23-1.47,2.44-3.05,3.49-4.65c0.54-0.81,3.02-3.62,0.58-1.27
			c-0.39,0.38-2.98,2.3-0.37,0.43c1.47-1.06,3.05-2.18,4.37-3.43c1.85-1.73,3.44-3.88,5.06-5.82c3.67-4.39,7.17-8.93,10.71-13.43
			c7.25-9.23,15-18.01,22.02-27.43c6.35-8.52,12.31-17.31,18.28-26.09c3.2-4.71,6.74-9.22,8.96-14.49c-0.21,0.5,2.61-4.88,1.09-2.55
			c-1.31,2,0.83-1.05,1.1-1.45c1.71-2.65,3.5-5.24,5.21-7.89c5.7-8.83,11.08-17.86,16.1-27.09c19.96-36.7,34.33-76.49,41.8-117.61
			c4.17-22.94,6.85-44.6,7.34-69.1c0.47-23.91-1.7-47.82-5.92-71.36c-8.09-45.12-24.62-88.53-46.99-128.5
			c-5.54-9.91-12.67-20.59-18.67-28.62c-2.93-3.93-5.7-7.97-8.64-11.89c-1.97-2.63-3.96-5.24-6.04-7.79
			c-0.79-0.96-1.59-1.92-2.41-2.86c-0.63-0.73-1.28-1.44-1.94-2.13c-1.63-1.89-1.18-0.74,1.35,3.43c-1-6.07-6.66-10.93-10.63-15.21
			c-3.74-4.04-7.51-8.05-11.39-11.96c-3.65-3.67-7.39-7.24-11.28-10.65c-1.91-1.67-3.84-3.31-5.81-4.91
			c-2.53-2.06-3.29-3.18-5.95-6.33c-3.43-4.06-8.86-7.23-13.17-10.41c-3.89-2.87-7.8-5.72-11.7-8.58c-3.68-2.7-7.35-5.41-11-8.16
			c-0.84-0.63-5.06-3.89-2.9-2.2c-2.1-1.64-4.18-3.29-6.25-4.98c-6.91-5.63-13.61-11.55-19.82-17.96c-2.87-2.96-5.64-6.03-8.26-9.22
			c-0.65-0.79-1.3-1.59-1.93-2.4c1.84,2.38,0.22,0.25-0.11-0.21c-1.47-2.1-2.95-4.19-4.33-6.36c-2.21-3.49-4.23-7.1-6.02-10.82
			c-0.45-0.94-0.89-1.89-1.32-2.84c1.31,2.89-0.1-0.27-0.38-1.01c-0.86-2.25-1.62-4.53-2.33-6.83
			c-2.65-8.55-12.07-14.88-21.07-11.96c-8.6,2.78-14.81,11.91-11.96,21.07c11.83,38.12,41.01,64.1,71.96,87.25
			c7.31,5.47,14.73,10.8,22.07,16.24c1.08,0.8,2.15,1.59,3.22,2.4c0.21,0.16,0.43,0.32,0.64,0.48c1.68,1.33,1.71,1.28,0.1-0.13
			c-0.39-0.36-0.79-0.73-1.18-1.09c0.83,1.08,1.66,2.16,2.5,3.23c1.09,1.41,2.13,2.66,3.45,3.84c3.98,3.56,8.21,6.81,12.12,10.46
			c3.75,3.51,7.37,7.15,10.93,10.86c1.7,1.77,3.38,3.56,5.05,5.35c0.85,0.92,1.71,1.83,2.56,2.75c0.99,1.06,4.67,6.34,2.21,1.46
			c-2.65-5.25,0.02,0.59,0.23,1.08c0.85,2.02,1.46,2.95,2.8,4.69c1.83,2.37,3.99,4.44,5.94,6.71c3.17,3.69,4.75,6.1,8.36,11.1
			c6.65,9.21,12.56,17.17,18.58,27.43c5.45,9.29,10.34,18.9,14.83,28.69c4.6,10.03,9.47,19.48,12.92,28.7
			c3.85,10.32,7.29,20.88,10.39,31.44c12.73,43.23,15.77,87.18,10.7,132.5c-0.23,2.04-0.65,5.54-0.81,6.76
			c0.32-2.46-1.01,7.26-0.46,3.35c-0.17,1.2-0.34,2.4-0.52,3.6c-0.76,5.07-1.61,10.12-2.56,15.16c-1.88,9.96-4.15,19.85-6.82,29.63
			c-2.65,9.72-5.69,19.34-9.12,28.81c-1.72,4.75-3.56,9.45-5.44,14.13c-0.1,0.26-1.24,3.01-0.34,0.86c-0.46,1.1-0.94,2.19-1.42,3.29
			c-1.2,2.74-2.43,5.47-3.69,8.18c-8.81,18.92-19.17,37.1-30.75,54.47c-1.29,1.93-2.61,3.79-3.6,5.89
			c-0.82,1.74-1.35,3.66-2.25,5.35c0.48-0.91,1.64-2.67-0.27-0.09c-3.46,4.65-6.55,9.62-9.81,14.41c-2.8,4.11-5.61,8.21-8.48,12.27
			c-2.58,3.65-6.92,9.6-8.59,11.76c-6.63,8.59-13.81,16.83-20.56,25.33c-3.19,4.01-6.5,7.9-9.88,11.76
			c0.37-0.43,3.03-2.21,0.37-0.43c-0.4,0.27-3.3,2.33-4.37,3.43c-2.37,2.43-4.11,5.38-5.94,8.21c0.57-0.88,2.51-2.65-0.55,0.29
			c-1.01,0.97-1.97,2-2.94,3c-1.93,1.98-3.84,3.99-5.74,6c-4.2,4.46-8.33,8.98-12.46,13.5c-7.84,8.6-15.62,17.29-23.88,25.5
			c-8.23,8.18-16.6,16.26-24.92,24.36c-4.39,4.27-7.19,6.67-11.75,10.52c-0.37,0.31-4.93,4.26-3.35,2.95
			c-2.5,2.09-2.74,1.99-4.22,3.58c-1.09,1.28-2.11,2.62-3.05,4.01c-0.74,1.05-0.48,0.75,0.8-0.92c-4.13,2.08-8.36,6.75-11.49,10.11
			c-0.75,0.81-1.91,1.9-2.51,2.89c1.07-1.75,1.6-1.1,0.11-0.11c-2.81,1.88-5.59,3.85-8.11,6.11c-8.47,7.59-16.1,16.16-24.46,23.88
			c-33.08,30.57-65.7,61.65-96.39,94.64c-3.7,3.97-7.72,7.34-11.64,11.05c-4.44,4.19-8.17,9.28-12.1,13.95
			c-7.29,8.67-14.52,17.39-21.54,26.28c-14.39,18.24-27.93,37.12-40.49,56.67c-6.08,9.47-11.89,19.11-17.37,28.94
			c9.86,5.76,19.72,11.53,29.58,17.29c35.21-64.92,61.52-134.77,77.74-206.82c16.81-74.68,22.34-150.89,18.96-227.27
			c-3.36-75.9-13.17-151.73-9.97-227.82c1.54-36.62,5.9-70.27,16.64-105.87c9.9-32.82,25.37-61.93,44.92-91.28
			c39.31-59,88.71-112.91,105.09-183.94c2.12-9.19,3.51-18.5,4.56-27.87c1-8.94-8.59-17.51-17.13-17.13
			C270.16,137.04,264.23,144.14,263.16,153.71L263.16,153.71z"/>
	</g>
</g>
<g>
	<g>
		<path class="st0" d="M254.94,87.14c4.18,10.56,7,21.6,8.52,32.86c-0.2-1.52-0.41-3.04-0.61-4.55c0.12,0.92,0.24,1.85,0.34,2.78
			c-0.09,2.36,0.4,4.56,1.48,6.6c0.69,2.12,1.87,3.96,3.54,5.51c2.97,2.97,7.85,5.21,12.11,5.02c4.43-0.2,9.02-1.65,12.11-5.02
			c0.89-1.16,1.79-2.31,2.68-3.47c1.55-2.67,2.33-5.55,2.34-8.65c-1.59-13.79-4.35-27.25-9.48-40.19c-0.53-2.23-1.55-4.17-3.07-5.82
			c-1.21-1.86-2.81-3.34-4.81-4.41c-1.97-1.25-4.09-1.93-6.37-2.03c-2.28-0.51-4.55-0.41-6.83,0.31c-4.14,1.34-8.14,3.91-10.24,7.87
			c-0.58,1.36-1.15,2.73-1.73,4.09C254.12,81.07,254.12,84.11,254.94,87.14L254.94,87.14z"/>
	</g>
</g>
<g>
	<g>
		<path class="st0" d="M986.03,640.74c-11.97,73.36-23.46,147.19-25.55,221.61c-2.06,73.39,5.42,148.36,31.52,217.43
			c23.11,61.16,59.68,115.37,103.93,163.23c42.66,46.14,91.45,86.11,140.89,124.69c13.1,10.23,26.27,20.37,39.44,30.5
			c6.4,4.93,12.8,9.85,19.2,14.78c0.77,0.6,1.55,1.2,2.32,1.79c2.06,1.59-2.04-1.58,0.02,0.01c1.55,1.2,3.1,2.39,4.64,3.59
			c3.29,2.55,6.57,5.1,9.85,7.65c24.94,19.43,49.64,39.17,73.56,59.85c5.83,5.04,11.62,10.15,17.35,15.31
			c10.76,9.69,29.31,3.31,29.24-12.11c-0.18-43.26-0.36-86.52-0.55-129.78c-0.18-41.61-0.33-83.24-2.71-124.79
			c-4.35-76.06-17.36-150.91-45.43-221.95c-25.91-65.56-61.61-126.24-105.05-181.68c-42.87-54.71-93.18-102.31-148.45-144.28
			c-2.98-2.26-5.95-4.52-8.92-6.79c-1.5-1.15-3-2.3-4.51-3.45c-2.55-1.96-0.42-0.32,0.07,0.06c-1.13-0.88-2.27-1.76-3.4-2.64
			c-6.47-5.04-12.88-10.16-19.19-15.4c-12.52-10.4-24.66-21.3-35.79-33.18c-2.54-2.71-5.03-5.48-7.45-8.3
			c-1.2-1.39-2.37-2.8-3.53-4.22c-0.58-0.71-1.14-1.42-1.71-2.13c-2.04-2.53,0.98,1.37-0.23-0.29c-4.44-6.09-8.7-12.23-12.38-18.82
			c-1.67-3-3.24-6.06-4.67-9.19c-1.8-3.93,0.77,2.26-0.77-1.76c-0.75-1.97-1.49-3.94-2.15-5.94c-1.05-3.18-1.95-6.41-2.68-9.68
			c-0.37-1.64-0.67-3.28-0.97-4.93c-0.11-0.62-0.54-3.35-0.16-0.83c0.41,2.72-0.08-0.91-0.14-1.48c-0.34-3.6-0.47-7.22-0.38-10.84
			c0.04-1.73,0.13-3.46,0.27-5.19c0.07-0.87,0.19-1.74,0.25-2.62c0.19-2.74-0.65,4.27,0-0.07c-11.22-1.52-22.43-3.04-33.65-4.55
			c-4.42,48.32-5.04,96.91-1.91,145.32c0.58,8.92,7.46,17.56,17.13,17.13c8.78-0.39,17.75-7.55,17.13-17.13
			c-3.13-48.42-2.51-97.01,1.91-145.32c0.77-8.46-7.12-15.78-14.85-16.82c-7.6-1.02-17.52,3.84-18.79,12.27
			c-2.53,16.72-2.13,33.28,2.52,49.64c4.27,15.02,11.5,29.31,20.39,42.11c18.95,27.31,43.83,49.6,69.68,70.19
			c7.12,5.68,14.34,11.24,21.57,16.78c2.97,2.28,5.96,4.54,8.94,6.81c1.47,1.12,2.94,2.23,4.41,3.35c0.77,0.58,1.54,1.17,2.3,1.75
			c0.58,0.44,4.11,3.16,1.35,1.02c13.42,10.39,26.49,21.23,39.19,32.48c25.83,22.87,50.14,47.46,72.67,73.57
			c5.63,6.52,11.15,13.14,16.55,19.86c2.54,3.16,5.03,6.35,7.55,9.53c1.65,2.08-1.5-1.97,0.11,0.14c0.62,0.8,1.23,1.61,1.85,2.41
			c1.38,1.81,2.76,3.63,4.12,5.45c10.3,13.77,20.12,27.89,29.42,42.34c18.52,28.79,35,58.9,49.06,90.11
			c1.65,3.66,3.27,7.33,4.85,11.02c0.4,0.92,0.79,1.84,1.18,2.77c-1.25-2.96-0.22-0.52,0.02,0.07c0.95,2.32,1.91,4.64,2.84,6.96
			c3.18,7.9,6.19,15.87,9.05,23.89c5.71,16.03,10.78,32.29,15.15,48.73c4.71,17.7,8.59,35.61,11.69,53.66
			c0.84,4.87,1.62,9.74,2.35,14.62c0.37,2.44,0.71,4.88,1.06,7.32c0.04,0.29,0.45,3.34,0.13,0.94c0.24,1.83,0.48,3.67,0.7,5.5
			c1.25,10.09,2.31,20.2,3.2,30.33c3.67,41.76,4.5,83.7,4.81,125.6c0.31,42.62,0.39,85.25,0.57,127.87
			c0.05,10.82,0.09,21.63,0.14,32.45c9.75-4.04,19.49-8.07,29.24-12.11c-47.42-42.7-98.51-81.05-148.99-120
			c-0.19-0.15-2.12-1.64-0.59-0.45c1.66,1.28-0.79-0.61-1.17-0.9c-1.55-1.2-3.09-2.39-4.64-3.59c-3.28-2.54-6.56-5.09-9.84-7.65
			c-6.16-4.8-12.3-9.62-18.41-14.47c-12.18-9.65-24.27-19.42-36.2-29.38c-23.56-19.66-46.52-40.07-68.21-61.78
			c-10.86-10.87-21.4-22.07-31.51-33.65c-4.95-5.67-9.79-11.43-14.52-17.29c-2.21-2.74-4.4-5.5-6.56-8.29
			c2.26,2.92-0.97-1.28-1.6-2.13c-1.27-1.69-2.53-3.38-3.79-5.08c-18.05-24.54-33.88-50.74-46.65-78.41
			c-0.95-2.06-1.88-4.13-2.8-6.2c-0.46-1.03-0.91-2.07-1.36-3.11c-0.02-0.04-1.11-2.6-0.46-1.07c0.72,1.71-0.62-1.51-0.76-1.86
			c-0.43-1.04-0.85-2.09-1.27-3.13c-0.94-2.35-1.86-4.7-2.76-7.07c-3.18-8.36-6.09-16.82-8.74-25.36
			c-5.27-16.97-9.52-34.24-12.83-51.69c-1.66-8.72-3.06-17.48-4.29-26.26c0.41,2.94-0.33-2.62-0.46-3.7
			c-0.27-2.21-0.53-4.41-0.77-6.62c-0.52-4.7-0.98-9.4-1.39-14.11c-1.54-17.81-2.29-35.68-2.41-53.55
			c-0.24-36.42,2.15-72.82,5.97-109.03c0.95-9.03,2-18.04,3.12-27.05c0.52-4.22,1.07-8.44,1.62-12.66c0.05-0.42,0.52-3.91,0.25-1.94
			c-0.26,1.97,0.21-1.52,0.26-1.94c0.34-2.53,0.69-5.05,1.05-7.58c2.5-17.89,5.24-35.75,8.08-53.59c1.41-8.85,2.84-17.69,4.28-26.54
			c1.44-8.81-2.28-18.87-11.96-21.07C998.85,626.9,987.57,631.29,986.03,640.74L986.03,640.74z"/>
	</g>
</g>
<g>
	<g>
		<path class="st0" d="M618.42,1160.42c-0.52,11.52-1.39,23.02-2.6,34.49c-0.31,2.95-0.65,5.9-1.01,8.84
			c-0.16,1.29-0.32,2.58-0.48,3.86c-0.09,0.68-0.43,3.18-0.06,0.48c0.42-3.01-0.1,0.69-0.14,1.03c-0.79,5.68-1.67,11.36-2.62,17.01
			c-3.81,22.6-8.91,44.98-15.14,67.03c-6.28,22.24-13.69,44.16-22.08,65.7c-2.08,5.35-4.22,10.67-6.42,15.97
			c-0.19,0.45-1.38,3.61-1.5,3.59c0.06,0.01,1.47-3.45,0.43-1.02c-0.29,0.68-0.58,1.36-0.87,2.04c-1.17,2.72-2.35,5.44-3.55,8.15
			c-4.64,10.5-9.5,20.9-14.57,31.2c-20.68,42.06-44.76,82.37-71.04,121.17c-13.58,20.06-27.74,39.72-42.33,59.05
			c-3.62,4.8-7.27,9.57-10.93,14.33c-1.16,1.51,0.9-1.16,0.9-1.17c-0.48,0.61-0.95,1.23-1.42,1.84c-0.95,1.23-1.9,2.45-2.86,3.67
			c-1.91,2.45-3.82,4.89-5.74,7.32c-7.44,9.45-14.97,18.82-22.57,28.14c-30.55,37.46-62.22,73.97-94.02,110.37
			c-3.96,4.53-7.91,9.05-11.87,13.58c-4.63,5.29-6.36,12.04-3.54,18.71c2.38,5.64,9.02,11.34,15.65,10.53
			c64.63-7.94,129.28-15.82,193.9-23.84c29.48-3.66,59.61-7.37,87.29-18.78c24.58-10.13,46.46-25.17,63.8-45.46
			c32.71-38.27,49.66-87.62,57.3-136.78c4.76-30.61,7.25-61.84,5.03-92.78c-2.17-30.26-9.25-59.41-18.82-88.11
			c-8.93-26.78-19.41-53.04-27.71-80.04c-4.03-13.12-7.53-26.42-9.93-39.94c-0.55-3.07-0.91-6.17-1.46-9.24
			c1.01,5.66,0.01-0.23-0.14-1.61c-0.2-1.88-0.38-3.77-0.53-5.66c-0.53-6.69-0.72-13.4-0.49-20.11c0.1-3.11,0.29-6.21,0.57-9.31
			c0.15-1.68,0.56-3.5,0.56-5.18c0.01,4.1-0.39,2.74-0.19,1.44c0.16-1.04,0.32-2.08,0.49-3.12c0.76-4.68,0.76-8.95-1.73-13.2
			c-2.08-3.55-6.15-6.94-10.24-7.87c-8.24-1.88-19.53,2.51-21.07,11.96c-4.73,29-2.35,57.86,4.39,86.37
			c6.36,26.92,16.14,52.87,25.46,78.87c9.3,25.92,18.39,52.11,23.4,79.26c0.66,3.56,1.75,7.5,1.8,11.12
			c-0.01-0.44-0.5-4.04-0.13-0.9c0.12,1.02,0.25,2.03,0.37,3.05c0.26,2.23,0.49,4.47,0.69,6.71c0.7,7.73,1.09,15.48,1.2,23.24
			c0.24,15.7-0.62,31.41-2.2,47.03c-0.34,3.39-0.72,6.79-1.13,10.17c-0.17,1.37-0.36,2.74-0.52,4.12c0.73-6.16-0.02,0.06-0.22,1.41
			c-0.88,5.99-1.9,11.96-3.05,17.9c-2.27,11.62-5.08,23.13-8.55,34.45c-1.72,5.63-3.61,11.2-5.67,16.71
			c-1.02,2.74-2.09,5.46-3.21,8.16c-0.46,1.12-1.55,3.46,0.48-1.12c-0.25,0.56-0.48,1.13-0.73,1.69c-0.67,1.54-1.36,3.08-2.06,4.6
			c-4.86,10.55-10.49,20.75-17.01,30.37c-1.5,2.22-3.06,4.4-4.66,6.55c-0.44,0.6-0.89,1.18-1.34,1.78
			c-1.35,1.79,2.82-3.53,0.77-1.01c-0.93,1.15-1.85,2.31-2.8,3.44c-3.6,4.3-7.41,8.42-11.44,12.33c-2.01,1.95-4.08,3.84-6.2,5.68
			c-1.01,0.87-2.02,1.73-3.05,2.57c-0.57,0.47-1.15,0.93-1.73,1.39c-2.9,2.3,2.09-1.56,0.65-0.5c-4.7,3.47-9.51,6.74-14.58,9.66
			c-2.64,1.52-5.33,2.96-8.06,4.31c-1.48,0.73-2.97,1.43-4.47,2.11c-0.43,0.19-2.36,0.76-2.51,1.11c2.24-0.94,2.76-1.16,1.56-0.66
			c-0.51,0.21-1.02,0.42-1.52,0.62c-6.47,2.59-13.1,4.77-19.81,6.64c-13.77,3.83-27.87,6.33-42.01,8.35
			c-1.66,0.24-3.33,0.45-4.99,0.7c5.55-0.82-1,0.13-2.1,0.27c-3.69,0.48-7.38,0.93-11.07,1.39c-7.85,0.97-15.7,1.93-23.54,2.89
			c-15.79,1.94-31.58,3.88-47.37,5.82c-32,3.93-63.99,7.87-95.99,11.8c-7.89,0.97-15.79,1.94-23.68,2.91
			c4.04,9.75,8.07,19.49,12.11,29.24c32.19-36.82,64.39-73.65,95.54-111.35c31.67-38.33,62.35-77.55,90.79-118.35
			c27.15-38.95,52.23-79.4,73.93-121.66c21.78-42.42,40.42-86.66,54.45-132.26c14-45.49,23.19-92.51,26.78-139.99
			c0.44-5.76,0.78-11.52,1.04-17.29c0.41-8.96-8.17-17.53-17.13-17.13C625.92,1143.72,618.86,1150.82,618.42,1160.42L618.42,1160.42
			z"/>
	</g>
</g>
<g>
	<g>
		<path class="st0" d="M297.76,455.9c-7.81,6.26-15.06,13.17-21.65,20.7c-10.15,11.6-19.76,23.99-27.87,37.13
			c-8.23,13.32-14.17,27.71-20.08,42.19c-3.81,9.32-6.87,18.93-9.09,28.75c-2.53,11.25-3.83,22.77-5.27,34.19
			c-0.73,5.75-1.18,11.52-1.36,17.31c44.86-6.07,89.72-12.14,134.58-18.21c-0.77-4.86-1.49-9.73-2.14-14.6
			c0.82,6.07,1.63,12.14,2.45,18.21c-6.76-51.01-6.72-102.79,0.04-153.79c-0.82,6.07-1.63,12.14-2.45,18.21
			c6.75-50.19,19.97-99.4,39.58-146.1c-2.3,5.46-4.6,10.91-6.91,16.37c5.65-13.37,11.81-26.52,18.47-39.41
			c6.2-10.69,9.32-22.21,9.35-34.58c0.36-9.43-1.61-18.23-5.9-26.4c-2.76-8.49-7.49-15.84-14.17-22.05
			c-8.55-8.49-18.63-14.36-30.23-17.62c-2.17-0.57-4.27-1.27-6.35-2.1c5.46,2.3,10.91,4.6,16.37,6.91
			c-3.81-1.63-7.33-3.66-10.65-6.13c4.62,3.57,9.24,7.14,13.87,10.71c-2.08-1.63-4-3.36-5.82-5.27
			c-6.21-6.68-13.56-11.4-22.05-14.17c-8.17-4.29-16.96-6.26-26.4-5.9c-6.07,0.82-12.14,1.63-18.21,2.45
			c-11.61,3.26-21.68,9.13-30.23,17.62c-15.97,20.42-31.51,41.05-45.53,62.86c-11.18,17.39-21.52,35.32-30.98,53.71
			c-11.91,23.14-22.27,47.04-31.99,71.18c-7.8,19.36-14.65,39.09-20.57,59.11c-13.95,47.15-22.1,95.34-28.53,144.01
			c-5.7,43.09-8.66,86.51-10.2,129.94c-1.56,43.89-1.66,87.81-1.56,131.72c0.01,5.39,0.03,10.79,0.04,16.18
			c0.07,24.17,13.05,46.94,33.93,59.16c21.19,12.4,47.96,12.31,69.16,0c12.3-7.14,23.34-15.84,34.54-24.61
			c6.52-5.11,12.76-10.56,18.63-16.41c15.88-15.8,29.82-33.97,42.03-52.72c9.16-14.07,17.01-28.98,23.68-44.38
			c10.13-23.4,19.2-46.87,26-71.45c10.83-39.13,17.41-79.28,24.51-119.2c7.5-42.16,15-84.32,22.49-126.49
			c8.47-47.6,16.93-95.21,25.4-142.81c-41.74,5.46-83.48,10.91-125.23,16.37c8.31,14.19,15.66,28.9,22.05,44.05
			c-2.3-5.46-4.6-10.91-6.91-16.37C320,426.16,329,459.88,333.63,494.27c-0.82-6.07-1.63-12.14-2.45-18.21
			c4.74,35.9,4.73,72.32-0.01,108.22c0.82-6.07,1.63-12.14,2.45-18.21c-4.69,34.91-13.84,69.14-27.51,101.61
			c2.3-5.46,4.6-10.91,6.91-16.37c-12.09,28.5-27.61,55.46-46.52,79.99c3.57-4.62,7.14-9.24,10.71-13.87
			c-5.92,7.63-12.14,15.01-18.68,22.13c32.3,32.3,64.6,64.6,96.89,96.89c20.31-24.83,39.37-50.7,55.6-78.39
			c16.32-27.84,29.54-57.21,41.48-87.16c21.91-54.95,33.75-113.18,38.67-172.04c2.54-30.38,2.44-60.95-0.27-91.31
			c-44.86,6.07-89.72,12.14-134.58,18.21c3.94,14.32,6.89,28.88,8.89,43.6c-0.82-6.07-1.63-12.14-2.45-18.21
			c4.22,31.99,3.81,64.38-0.41,96.34c0.82-6.07,1.63-12.14,2.45-18.21c-5.41,40.03-16.67,79.06-32.28,116.28
			c2.3-5.46,4.6-10.91,6.91-16.37c-16.73,39.63-38.49,76.88-63.23,112.02c-7.16,10.16-14.56,20.14-22.16,29.98
			c3.57-4.62,7.14-9.24,10.71-13.87c-33.08,42.7-69.79,82.4-107.22,121.28c-10.5,10.9-21.05,21.75-31.61,32.59
			c-6.68,6.21-11.4,13.56-14.17,22.05c-4.29,8.17-6.26,16.96-5.9,26.4c-0.36,9.43,1.61,18.23,5.9,26.4
			c2.76,8.49,7.49,15.84,14.17,22.05c13.06,11.99,30.2,20.88,48.45,20.07c6.07-0.82,12.14-1.63,18.21-2.45
			c11.61-3.26,21.68-9.13,30.23-17.62c29.42-30.2,58.83-60.43,86.93-91.86c31.74-35.49,61.92-72.66,88.97-111.87
			c11.93-17.3,23.13-35.1,33.37-53.45c12.72-22.8,23.23-46.49,33.27-70.58c8-19.19,14.82-38.88,20.27-58.95
			c6.92-25.46,10.96-51.27,14.22-77.44c2.53-20.31,3.5-40.82,2.67-61.28c-0.42-10.34-1.31-20.65-2.64-30.92
			c-2.06-15.82-4.09-31.59-7.59-47.16c-1.15-5.11-2.43-10.19-3.82-15.24c-2.12-8.92-6.21-16.68-12.26-23.3
			c-4.83-7.46-11.24-13.34-19.22-17.65c-5.46-2.3-10.91-4.6-16.37-6.91c-9.11-2.86-18.21-3.26-27.32-1.22
			c-6.18,0.02-11.95,1.58-17.29,4.68c-8.49,2.76-15.84,7.49-22.05,14.17c-3.57,4.62-7.14,9.24-10.71,13.87
			c-6.2,10.69-9.32,22.21-9.35,34.58c3.5,39.19,2.58,78.68-2.6,117.68c0.82-6.07,1.63-12.14,2.45-18.21
			c-6.35,47.07-18.87,93.2-37.26,136.99c2.3-5.46,4.6-10.91,6.91-16.37c-17.34,41.04-39.79,79.83-67.03,115.09
			c3.57-4.62,7.14-9.24,10.71-13.87c-2.8,3.6-5.64,7.17-8.53,10.7c-6.68,6.21-11.4,13.56-14.17,22.05
			c-4.29,8.17-6.26,16.96-5.9,26.4c-0.36,9.43,1.61,18.23,5.9,26.4c2.76,8.49,7.49,15.84,14.17,22.05
			c13.06,11.99,30.2,20.88,48.45,20.07c6.07-0.82,12.14-1.63,18.21-2.45c11.61-3.26,21.68-9.13,30.23-17.62
			c14.5-15.79,27.79-32.86,39.99-50.47c9.09-13.11,17.27-26.85,24.53-41.06c16.91-33.11,30.57-68.46,38.95-104.72
			c4.94-21.36,7.99-43.18,10.4-64.95c1.74-15.78,2.57-31.65,2.48-47.53c-0.09-16.25-1.15-32.5-3.18-48.63
			c-2.76-21.95-5.86-43.74-11.22-65.22c-4.37-17.5-9.94-34.7-16.7-51.42c-9.05-22.36-18.72-44.32-30.91-65.15
			c-3.57-4.62-7.14-9.24-10.71-13.87c-4.62-3.57-9.24-7.14-13.87-10.71c-5.46-2.3-10.91-4.6-16.37-6.91
			c-9.11-2.86-18.21-3.26-27.32-1.22c-6.18,0.02-11.95,1.58-17.29,4.68c-5.8,1.63-10.84,4.56-15.12,8.81
			c-5.15,3.05-9.24,7.14-12.29,12.29c-6.06,6.62-10.14,14.38-12.26,23.3c-10.52,59.16-21.04,118.33-31.56,177.49
			c-5.24,29.47-10.48,58.94-15.72,88.41c-5,28.12-9.76,56.31-15.77,84.24c-6.63,30.8-14.95,61.33-27.15,90.43
			c2.3-5.46,4.6-10.91,6.91-16.37c-9.66,22.84-21.8,44.62-36.95,64.29c3.57-4.62,7.14-9.24,10.71-13.87
			c-11.09,14.26-23.7,27.26-37.96,38.37c4.62-3.57,9.24-7.14,13.87-10.71c-6.59,5.08-13.48,9.72-20.67,13.9
			c34.36,19.72,68.73,39.44,103.09,59.16c-0.2-73-0.32-146.13,5.53-218.95c1.65-20.53,3.79-41.02,6.53-61.43
			c-0.82,6.07-1.63,12.14-2.45,18.21c7.01-51.82,18.02-103.2,35.19-152.66c4.67-13.44,9.79-26.73,15.32-39.84
			c-2.3,5.46-4.6,10.91-6.91,16.37c16.85-39.78,37.58-77.89,61.95-113.57c6.97-10.2,14.23-20.18,21.77-29.97
			c-3.57,4.62-7.14,9.24-10.71,13.87c0.99-1.28,1.98-2.56,2.98-3.83c-32.3,0-64.6,0-96.89,0c14.06,14.73,33.38,25.94,53.06,31.13
			c-13.65-33.55-27.3-67.1-40.95-100.65c-13.44,26-25.07,53.09-35.13,80.57c-8.2,22.41-14.98,45.35-20.31,68.61
			c-6.57,28.71-10.85,57.99-13.92,87.26c-2.51,23.91-3.53,47.98-3.07,72.02c0.64,32.95,4.4,65.72,9.57,98.25
			c2.12,8.92,6.21,16.68,12.26,23.3c4.83,7.46,11.24,13.34,19.22,17.65c5.46,2.3,10.91,4.6,16.37,6.91
			c9.11,2.86,18.21,3.26,27.32,1.22c6.18-0.02,11.95-1.58,17.29-4.68c8.49-2.76,15.84-7.49,22.05-14.17
			c3.57-4.62,7.14-9.24,10.71-13.87c6.2-10.69,9.32-22.21,9.35-34.58c0.19-6.15,0.69-12.28,1.5-18.38
			c-0.82,6.07-1.63,12.14-2.45,18.21c2.13-15.36,6.24-30.33,12.18-44.64c-2.3,5.46-4.6,10.91-6.91,16.37
			c6-14.21,13.74-27.57,23.12-39.81c-3.57,4.62-7.14,9.24-10.71,13.87c8.34-10.74,17.84-20.47,28.45-28.98
			c6.68-6.21,11.4-13.56,14.17-22.05c4.29-8.17,6.26-16.96,5.9-26.4c0.36-9.43-1.61-18.23-5.9-26.4
			c-2.76-8.49-7.49-15.84-14.17-22.05c-13.06-11.99-30.2-20.88-48.45-20.07c-6.07,0.82-12.14,1.63-18.21,2.45
			C316.39,441.53,306.31,447.41,297.76,455.9L297.76,455.9z"/>
	</g>
</g>
<g>
	<g>
		<path class="st0" d="M151.33,1052.84c7.07,0.27,13.67-1.21,19.8-4.43c6.37-2.07,11.88-5.61,16.54-10.62
			c5.01-4.65,8.55-10.17,10.62-16.54c3.22-6.12,4.69-12.72,4.43-19.8c-0.61-4.55-1.22-9.11-1.84-13.66
			c-2.44-8.71-6.85-16.26-13.21-22.67c-3.47-2.68-6.93-5.36-10.4-8.03c-8.01-4.65-16.66-6.99-25.94-7.02
			c-7.07-0.27-13.67,1.21-19.8,4.43c-6.37,2.07-11.88,5.61-16.54,10.62c-5.01,4.65-8.55,10.17-10.62,16.54
			c-3.22,6.12-4.69,12.72-4.43,19.8c0.61,4.55,1.22,9.11,1.84,13.66c2.44,8.71,6.85,16.26,13.22,22.67
			c3.47,2.68,6.93,5.36,10.4,8.03C133.41,1050.47,142.05,1052.81,151.33,1052.84L151.33,1052.84z"/>
	</g>
</g>
<g>
	<g>
		<path class="st0" d="M90.78,1032.26c-0.92,11.16-1.83,22.33-2.75,33.49c-0.18,4.72,0.81,9.12,2.95,13.2
			c1.38,4.25,3.74,7.92,7.08,11.02c3.1,3.34,6.78,5.7,11.02,7.08c4.08,2.14,8.48,3.13,13.2,2.95c3.04-0.41,6.07-0.82,9.11-1.22
			c5.8-1.63,10.84-4.56,15.12-8.81c1.79-2.31,3.57-4.62,5.36-6.93c3.1-5.34,4.66-11.11,4.68-17.29c0.92-11.16,1.83-22.33,2.75-33.49
			c0.18-4.72-0.81-9.12-2.95-13.2c-1.38-4.25-3.74-7.92-7.08-11.02c-3.1-3.34-6.78-5.7-11.02-7.08c-4.08-2.14-8.48-3.13-13.2-2.95
			c-3.04,0.41-6.07,0.82-9.11,1.22c-5.8,1.63-10.84,4.56-15.12,8.81c-1.79,2.31-3.57,4.62-5.36,6.93
			C92.36,1020.31,90.8,1026.08,90.78,1032.26L90.78,1032.26z"/>
	</g>
</g>
<g>
	<g>
		<path class="st0" d="M584.57,1339.85c-17.87,31.5-37.46,62.02-58.69,91.36c-6.06,8.38-12.25,16.66-18.57,24.84
			c1.79-2.31,3.57-4.62,5.36-6.93c-27.47,35.53-58.17,68.41-84.91,104.52c-24.42,32.96-44.88,68.65-63.77,105.01
			c-10.67,20.53-20.85,41.3-31.03,62.07c-1.15,2.73-2.3,5.46-3.45,8.18c-0.41,3.04-0.82,6.07-1.22,9.11
			c0.41,3.04,0.82,6.07,1.22,9.11c1.06,4.46,3.1,8.34,6.13,11.65c1.52,2.57,3.57,4.62,6.14,6.15c2.14,2.12,4.66,3.59,7.56,4.4
			c2.67,1.55,5.55,2.33,8.65,2.34c4.55,1.02,9.11,0.82,13.66-0.61c47.37-12.36,94.74-24.73,142.11-37.1
			c11.79-3.08,23.6-6.12,35.38-9.24c12.51-3.32,24.97-7.44,36.42-13.57c6.65-3.56,12.8-8.29,18.41-13.27
			c5.09-4.52,9.19-10.08,13.19-15.53c2.35-3.2,4.35-6.66,6.02-10.27c2.83-6.15,5.58-12.49,7.37-19.04
			c1.91-6.96,2.73-14.14,3.63-21.28c0.54-4.25,0.84-8.52,0.93-12.8c0.19-8.88-0.47-17.76-1.59-26.56
			c-1.48-11.7-3.24-23.3-5.63-34.84c-1.44-6.94-3.39-13.76-7.06-19.95c-7.93-13.35-23.1-22.93-38.98-21.86
			c-4.04,0.27-8.36,0.71-12.31,1.89c-3.81,1.14-7.91,3.13-11.31,4.6c-2.39,1.03-4.75,2.11-7.11,3.2c-4.57,2.13-9.11,4.34-13.59,6.65
			c-8.78,4.52-17.37,9.38-25.77,14.58c-19.05,11.79-37.13,25.3-54.13,39.87c-15.11,12.95-29.2,27.09-42.08,42.26
			c-8.13,9.57-15.85,19.52-23.21,29.69c-1.44,2-2.87,4.01-4.27,6.03c-2.75,3.97-4.24,7.92-6.05,12.66
			c-1.64,4.3-1.97,9.39-2.41,13.76c-0.08,0.83-0.13,1.65-0.08,2.48c0.11,1.76,0.47,3.76,0.68,5.33c0.19,1.45,0.35,3.89,0.82,5.65
			c4.49,16.85,20.1,28.9,37.56,28.78c4.72,0.18,9.12-0.81,13.2-2.95c4.25-1.38,7.92-3.74,11.02-7.08c3.34-3.1,5.7-6.78,7.08-11.02
			c2.14-4.08,3.13-8.48,2.95-13.2c-0.4-8.86-3.31-18.05-10.03-24.22c-6.67-6.13-14.97-10.1-24.22-10.03c-0.26,0.01-0.51,0-0.76-0.02
			c3.04,0.41,6.07,0.82,9.11,1.22c-0.46-0.06-0.88-0.17-1.31-0.34c2.73,1.15,5.46,2.3,8.18,3.45c-0.29-0.15-0.54-0.3-0.8-0.49
			c2.31,1.79,4.62,3.57,6.93,5.36c-0.24-0.21-0.45-0.42-0.66-0.66c1.79,2.31,3.57,4.62,5.36,6.93c-0.26-0.36-0.47-0.72-0.66-1.12
			c1.15,2.73,2.3,5.46,3.45,8.18c-0.27-0.68-0.44-1.36-0.55-2.09c0.41,3.04,0.82,6.07,1.22,9.11c-0.14-1.23-0.09-2.45,0.07-3.68
			c-0.41,3.04-0.82,6.07-1.22,9.11c0.25-1.6,0.68-3.13,1.29-4.63c-1.15,2.73-2.3,5.46-3.45,8.18c1.49-3.38,4.02-6.38,6.16-9.36
			c2.46-3.42,4.98-6.79,7.54-10.12c-1.79,2.31-3.57,4.62-5.36,6.93c15.26-19.72,32.46-37.91,51.3-54.24
			c5.35-4.64,10.83-9.12,16.43-13.46c-2.31,1.79-4.62,3.57-6.93,5.36c18.87-14.57,39.09-27.39,60.36-38.16
			c6.08-3.08,12.23-6.06,18.5-8.73c-2.73,1.15-5.46,2.3-8.18,3.45c1.85-0.76,3.71-1.4,5.69-1.73c-3.04,0.41-6.07,0.82-9.11,1.22
			c1.08-0.13,2.11-0.16,3.19-0.05c-3.04-0.41-6.07-0.82-9.11-1.22c0.87,0.15,1.66,0.37,2.47,0.71c-2.73-1.15-5.46-2.3-8.18-3.45
			c0.62,0.31,1.19,0.65,1.75,1.07c-2.31-1.79-4.62-3.57-6.93-5.36c0.66,0.55,1.23,1.14,1.77,1.8c-1.79-2.31-3.57-4.62-5.36-6.93
			c0.73,1,1.31,2.04,1.81,3.16c-1.15-2.73-2.3-5.46-3.45-8.18c2.18,5.2,2.94,11.09,4,16.6c1.1,5.76,2.07,11.54,2.85,17.34
			c-0.41-3.04-0.82-6.07-1.22-9.11c1.82,13.75,2.63,27.76,0.81,41.55c0.41-3.04,0.82-6.07,1.22-9.11
			c-0.98,7.1-2.68,14.07-5.45,20.69c1.15-2.73,2.3-5.46,3.45-8.18c-2.03,4.74-4.58,9.2-7.72,13.28c1.79-2.31,3.57-4.62,5.36-6.93
			c-2.9,3.7-6.22,6.99-9.92,9.88c2.31-1.79,4.62-3.57,6.93-5.36c-4.71,3.59-9.91,6.38-15.35,8.68c2.73-1.15,5.46-2.3,8.18-3.45
			c-11.15,4.62-23.02,7.3-34.66,10.34c-13.25,3.46-26.51,6.92-39.76,10.38c-26.51,6.92-53.02,13.84-79.52,20.76
			c-14.97,3.91-29.94,7.82-44.92,11.72c12.9,16.77,25.79,33.55,38.69,50.32c11.62-23.71,23.24-47.42,35.58-70.76
			c12.3-23.27,25.33-46.19,39.72-68.24c8.18-12.54,16.82-24.77,25.97-36.63c-1.79,2.31-3.57,4.62-5.36,6.93
			c20.62-26.67,43.4-51.57,64.39-77.94c22.17-27.86,43.17-56.61,62.46-86.54c10.07-15.62,19.68-31.53,28.86-47.69
			c2.5-3.93,3.86-8.18,4.07-12.74c1.02-4.55,0.82-9.11-0.61-13.66c-1.06-4.46-3.1-8.34-6.13-11.65c-2.42-3.73-5.62-6.67-9.61-8.82
			c-7.95-4.2-17.58-6.31-26.4-3.45C596.6,1326.83,589.04,1331.96,584.57,1339.85L584.57,1339.85z"/>
	</g>
</g>
<g>
	<g>
		<path class="st0" d="M488.85,1697.58c15.92-14,30.94-29,44.95-44.9c15.81-17.94,30.54-36.95,44.02-56.7
			c11.97-17.54,22.85-35.81,32.57-54.69c11-21.36,20.61-43.53,28.92-66.07c7.41-20.1,13.56-40.67,18.38-61.55
			c0.59-2.56,1.16-5.12,1.71-7.69c-22.02,0-44.04,0-66.07,0c1.61,10.36,3.17,20.72,4.57,31.11c-0.41-3.04-0.82-6.07-1.22-9.11
			c3.84,28.61,6.48,57.52,5.12,86.41c-0.39,8.18-1.1,16.35-2.18,24.47c0.41-3.04,0.82-6.07,1.22-9.11
			c-2.56,18.87-7.33,37.41-14.71,54.99c1.15-2.73,2.3-5.46,3.45-8.18c-5.77,13.66-13.09,26.64-22.15,38.4
			c1.79-2.31,3.57-4.62,5.36-6.93c-7.24,9.33-15.54,17.79-24.88,25.03c2.31-1.79,4.62-3.57,6.93-5.36
			c-13.72,10.56-29.48,17.84-44.86,25.6c-7.41,3.74-14.79,7.6-21.81,12.05c-5.8,3.67-11.19,7.87-16.59,12.11
			c-3.06,2.41-6,4.98-8.7,7.79c-4.91,5.11-9.36,10.82-13.17,16.78c-3.93,6.16-6.77,13.14-9.2,19.98c-1.63,6.07-1.63,12.14,0,18.21
			c1.06,4.46,3.1,8.34,6.13,11.65c2.42,3.73,5.62,6.67,9.61,8.82c5.34,3.1,11.11,4.66,17.29,4.68c13.39-1.44,26.76-3.43,39.82-6.78
			c10.18-2.61,20.18-5.96,29.89-9.98c12.32-5.1,24.4-10.49,35.94-17.19c11.5-6.69,22.1-14.49,32.61-22.63
			c8.28-6.42,16.15-13.35,23.53-20.8c9.34-9.43,17.6-19.7,25.61-30.27c14.44-19.05,25.21-40.13,33.82-62.39
			c4.05-10.47,7.51-21.35,9.57-32.4c1.17-6.24,2.11-12.58,2.46-18.92c0.35-6.39-0.65-12.67-1.6-18.98
			c-1.13-7.53-4.27-14.82-7.68-21.54c-1.07-2.1-2.31-4.12-3.69-6.04c-2.98-4.15-6.1-8.36-9.62-12.1c-1.65-1.75-3.42-3.39-5.28-4.92
			c-4-3.28-8.12-6.58-12.48-9.4c-6.48-4.19-13.83-7.19-21-9.87c-4.65-1.73-9.47-2.93-14.38-3.63c-7.78-1.11-15.44-2.31-23.29-1.55
			c-8.6,0.83-17.29,2.03-25.53,4.72c-5.39,1.76-10.63,4.1-15.82,6.36c-2.66,1.16-5.27,2.45-7.82,3.84
			c-5.14,2.82-10.03,6.08-14.7,9.64c-6.92,5.27-13.7,10.57-19.97,16.59c-4.27,4.1-8.33,8.42-12.23,12.88
			c-9.99,11.43-19.27,23.57-27.78,36.13c-14.04,20.73-25.69,42.99-35.93,65.81c-11.49,25.61-21.61,51.79-31.2,78.16
			c-2.09,5.75-4.16,11.5-6.23,17.26c-1.43,4.55-1.63,9.11-0.61,13.66c0.21,4.56,1.56,8.8,4.07,12.74c2.15,3.99,5.09,7.2,8.82,9.61
			c3.31,3.03,7.19,5.07,11.65,6.13c3.04,0.41,6.07,0.82,9.11,1.22c6.18-0.02,11.95-1.58,17.29-4.68c2.31-1.79,4.62-3.57,6.93-5.36
			c4.25-4.27,7.18-9.31,8.81-15.12c6.87-19.11,13.77-38.21,21.28-57.08c2.12-5.34,4.3-10.66,6.53-15.96
			c-1.15,2.73-2.3,5.46-3.45,8.18c11.15-26.4,23.82-52.27,39.59-76.24c4.46-6.78,9.17-13.39,14.13-19.81
			c-1.79,2.31-3.57,4.62-5.36,6.93c10.5-13.54,22.06-26.43,35.65-36.94c-2.31,1.79-4.62,3.57-6.93,5.36
			c7.31-5.61,15.18-10.48,23.67-14.12c-2.73,1.15-5.46,2.3-8.18,3.45c6.69-2.82,13.66-4.82,20.86-5.81
			c-3.04,0.41-6.07,0.82-9.11,1.22c5.55-0.72,11.11-0.7,16.66,0.04c-3.04-0.41-6.07-0.82-9.11-1.22c5.81,0.82,11.48,2.38,16.9,4.63
			c-2.73-1.15-5.46-2.3-8.18-3.45c5.22,2.21,10.15,5.03,14.64,8.5c-2.31-1.79-4.62-3.57-6.93-5.36c3.67,2.88,6.99,6.15,9.85,9.84
			c-1.79-2.31-3.57-4.62-5.36-6.93c2.34,3.09,4.32,6.41,5.86,9.97c-1.15-2.73-2.3-5.46-3.45-8.18c1.43,3.42,2.42,6.97,2.96,10.63
			c-0.41-3.04-0.82-6.07-1.22-9.11c0.68,5.09,0.52,10.19-0.14,15.27c0.41-3.04,0.82-6.07,1.22-9.11
			c-2.05,14.74-7.03,29.34-12.8,43.01c1.15-2.73,2.3-5.46,3.45-8.18c-7.56,17.83-17.47,34.59-29.31,49.91
			c1.79-2.31,3.57-4.62,5.36-6.93c-12.26,15.81-26.52,30-42.33,42.25c2.31-1.79,4.62-3.57,6.93-5.36
			c-15.99,12.33-33.51,22.61-52.11,30.46c2.73-1.15,5.46-2.3,8.18-3.45c-17.97,7.55-36.86,12.78-56.17,15.4
			c3.04-0.41,6.07-0.82,9.11-1.22c-1.91,0.25-3.83,0.48-5.75,0.69c11.01,14.45,22.02,28.91,33.03,43.36
			c0.39-1.11,0.81-2.2,1.27-3.29c-1.15,2.73-2.3,5.46-3.45,8.18c1.95-4.58,4.47-8.85,7.49-12.81c-1.79,2.31-3.57,4.62-5.36,6.93
			c3.98-5.14,8.71-9.62,13.84-13.61c-2.31,1.79-4.62,3.57-6.93,5.36c15.95-12.3,34.84-19.98,52.5-29.38
			c11.91-6.34,22.73-13.77,33.2-22.32c10.87-8.88,19.59-19.44,28.07-30.56c6.91-9.06,12.8-18.88,17.73-29.14
			c6.15-12.8,11.48-26.14,15.38-39.82c4.07-14.26,6.31-28.78,8.14-43.48c1.77-14.24,2.38-28.61,2.17-42.95
			c-0.46-31.82-4.86-63.49-9.6-94.9c-0.54-3.56-1.08-7.12-1.64-10.67c-1.15-2.73-2.3-5.46-3.45-8.18c-2.15-3.99-5.09-7.2-8.82-9.61
			c-2.14-2.12-4.66-3.59-7.56-4.41c-4.08-2.14-8.48-3.13-13.2-2.95c-3.04,0.41-6.07,0.82-9.11,1.22c-2.73,1.15-5.46,2.3-8.18,3.45
			c-3.99,2.15-7.2,5.09-9.61,8.82c-3.03,3.31-5.07,7.19-6.13,11.65c-5.25,24.4-12.29,48.41-21.04,71.78
			c-2.47,6.59-5.07,13.13-7.81,19.61c1.15-2.73,2.3-5.46,3.45-8.18c-13.53,32.01-30.24,62.66-49.89,91.32
			c-5.49,8-11.21,15.85-17.13,23.53c1.79-2.31,3.57-4.62,5.36-6.93c-15.33,19.82-32.09,38.52-50.19,55.85
			c-5.12,4.91-10.36,9.7-15.68,14.39c-3.34,3.1-5.7,6.78-7.08,11.02c-2.14,4.08-3.13,8.48-2.95,13.2c-0.18,4.72,0.81,9.12,2.95,13.2
			c1.38,4.25,3.74,7.92,7.08,11.02c2.31,1.79,4.62,3.57,6.93,5.36c5.34,3.1,11.11,4.66,17.29,4.68c3.04-0.41,6.07-0.82,9.11-1.22
			C479.53,1704.76,484.57,1701.83,488.85,1697.58L488.85,1697.58z"/>
	</g>
</g>
<g>
	<g>
		<path class="st0" d="M1059.06,882.65c3.92,39.91,7.84,79.82,11.77,119.73c22.43-3.04,44.86-6.07,67.29-9.11
			c-16.27-87.76-32.53-175.51-48.8-263.27c-4.59-24.75-9.18-49.5-13.76-74.26c-1.15-2.73-2.3-5.46-3.45-8.18
			c-2.15-3.99-5.09-7.2-8.82-9.61c-5.78-4.46-13.25-7.69-20.76-7.36c-14.93,0.67-29.17,10.12-33.03,25.15
			c-15.38,59.87-25.22,121.44-28.52,183.19c-3.31,61.98,0.79,124.3,12.37,185.29c5.51,29.04,12.9,57.78,22.45,85.76
			c9.91,29.03,22.09,57.86,38.73,83.72c33.02,51.32,81.84,87.52,128.92,124.95c50.16,39.87,100.31,79.74,150.47,119.6
			c6.17,4.9,12.34,9.81,18.51,14.71c4.27,4.25,9.31,7.18,15.12,8.81c6.07,1.63,12.14,1.63,18.21,0
			c10.81-2.98,21.73-12.47,23.93-23.93c11.68-60.79,10.85-122.42,3.36-183.65c-7.37-60.28-18.6-120.24-31-179.67
			c-11.6-55.63-27.35-111.42-56.25-160.8c-26-44.43-61.86-82.32-99.23-117.32c-36.06-33.78-73.97-65.72-107.35-102.24
			c-4.13-4.52-8.18-9.11-12.16-13.77c-5.2-6.1-16.35-10.39-24.22-10.03c-7.73,0.35-14.6,2.6-20.76,7.36
			c-12.78,9.87-18.34,29.9-8.82,44.19c25.68,38.57,46.73,79.96,64.74,122.61c-1.15-2.73-2.3-5.46-3.45-8.18
			c28.56,67.87,49.56,138.54,71.25,208.81c22.37,72.46,45.86,144.76,78.25,213.48c17.45,37.01,37.74,72.69,61.72,105.88
			c5.12,7.09,11.5,13.7,20.47,15.74c7.66,1.74,15.03,1.34,22.31-1.73c16.17-6.82,23.49-23.5,19.83-40.41
			c-16.02-74.16-32.04-148.32-48.05-222.48c-7.84-36.29-15.53-72.61-23.54-108.86c-7.97-36.07-17.64-71.32-32.98-105.03
			c-6.37-14-13.93-27.44-23-39.88c-10.17-13.95-21.19-27.28-34.32-38.56c-12.73-10.93-26.53-20.97-41.88-27.89
			c-8.82-3.98-17.82-7.76-27.19-10.25c-17.5-4.65-36.17-2.72-49.41,10.72c-5.4,5.48-9.23,12.53-11.28,19.91
			c-1.46,5.29-2.2,11.43-1.8,16.99c0.75,10.46,3.36,19.93,6.26,29.9c5.03,17.25,10.22,34.45,15.57,51.61
			c10.71,34.33,22.07,68.47,34.06,102.37c25,70.71,52.82,140.41,83.02,209.05c3.53,8.03,7.1,16.04,10.7,24.03
			c1.79,2.31,3.57,4.62,5.36,6.93c3.1,3.34,6.78,5.7,11.02,7.08c6.81,2.87,15.08,4.07,22.31,1.73
			c14.61-4.73,24.82-17.43,25.15-33.03c1.79-85.16-6.28-170.59-23.09-254.08c-4.62-22.94-9.96-45.73-15.98-68.34
			c-4.4-16.52-21.04-26.76-37.59-24.54c-16.57,2.23-29.83,16.48-29.7,33.65c0.39,52,3.37,103.98,8.97,155.68
			c5.89,54.41,14.28,108.59,25.52,162.16c6.08,28.97,12.99,57.76,20.69,86.35c19.09-11.11,38.17-22.22,57.26-33.33
			c-7.26-7.71-14.11-15.76-20.6-24.12c1.79,2.31,3.57,4.62,5.36,6.93c-37.21-48.23-61.65-104.74-85.91-160.19
			c-7.64-17.46-15.16-34.97-22.58-52.53c1.15,2.73,2.3,5.46,3.45,8.18c-27.68-65.63-53.75-131.93-78.13-198.85
			c-6.94-19.04-13.74-38.13-20.41-57.26c-22.02,6.07-44.04,12.14-66.07,18.21c17.27,44.4,27.54,91.02,37.63,137.46
			c10.02,46.12,19.89,92.56,36.75,136.76c10.32,27.06,22.53,53.44,38.42,77.71c19.72-11.53,39.44-23.05,59.16-34.58
			c-28.3-41.85-53.45-85.82-75.09-131.48c-6.09-12.84-11.89-25.82-17.42-38.9c1.15,2.73,2.3,5.46,3.45,8.18
			c-12.62-29.94-23.77-60.48-33.39-91.52c-2.61-8.4-8.07-15.98-15.74-20.47c-7.34-4.3-18.16-6.12-26.4-3.45
			c-8.29,2.68-16.29,7.82-20.47,15.74c-4.5,8.52-5.25,16.92-3.45,26.4c10.92,57.51,27.38,113.93,49.03,168.32
			c22.69,57.03,50.07,112.03,83.01,163.84c8.89,13.99,18.13,27.78,27.8,41.24c4.71,6.56,9.24,12.38,16.64,16.09
			c6.97,3.5,14.36,5.82,22.27,5.7c10.31-0.16,19.45-4.05,26.89-11.08c11.68-11.03,13.06-30.41,4.92-43.81
			c-4.52-7.44-12.02-13.42-20.47-15.74c-8.2-2.26-19.12-1.24-26.4,3.45c-7.31,4.72-13.75,11.74-15.74,20.47
			c-2.03,8.91-1.4,18.41,3.45,26.4c0.11,0.19,0.23,0.38,0.34,0.56c-1.15-2.73-2.3-5.46-3.45-8.18c0.16,0.3,0.26,0.63,0.28,0.97
			c-0.41-3.04-0.82-6.07-1.22-9.11c-0.01,0.14-0.03,0.27-0.04,0.41c0.41-3.04,0.82-6.07,1.22-9.11c-0.05,0.12-0.1,0.24-0.15,0.35
			c2.94-5.04,5.87-10.08,8.81-15.12c-0.08,0.1-0.17,0.2-0.25,0.3c2.31-1.79,4.62-3.57,6.93-5.36c-0.22,0.2-0.48,0.35-0.76,0.45
			c2.73-1.15,5.46-2.3,8.18-3.45c-0.34,0.12-0.69,0.21-1.05,0.25c3.04-0.41,6.07-0.82,9.11-1.22c-0.67,0.05-1.28,0.05-1.95,0
			c3.04,0.41,6.07,0.82,9.11,1.22c-1.27-0.18-2.44-0.5-3.64-0.97c2.73,1.15,5.46,2.3,8.18,3.45c-0.72-0.34-1.35-0.7-2.01-1.15
			c2.31,1.79,4.62,3.57,6.93,5.36c-0.6-0.49-1.08-0.95-1.57-1.56c1.79,2.31,3.57,4.62,5.36,6.93
			c-31.25-43.71-58.74-90.08-82.03-138.5c-6.58-13.69-12.82-27.54-18.74-41.53c1.15,2.73,2.3,5.46,3.45,8.18
			c-19.64-46.6-35.55-94.76-47.32-143.95c-3.36-14.04-6.37-28.16-9.07-42.34c-22.02,6.07-44.04,12.14-66.07,18.21
			c23.24,74.95,55.14,147.56,94.8,215.28c10.92,18.64,22.46,36.91,34.56,54.81c5.03,7.44,11.61,13.3,20.47,15.74
			c8.2,2.26,19.12,1.24,26.4-3.45c7.31-4.72,13.75-11.74,15.74-20.47c1.99-8.73,1.61-18.67-3.45-26.4
			c-11.51-17.58-21.18-36.25-29.37-55.59c1.15,2.73,2.3,5.46,3.45,8.18c-30.25-72.02-39.8-150.25-59.78-225.28
			c-5.67-21.29-12.2-42.35-20.19-62.88c-3.33-8.57-7.53-15.67-15.74-20.47c-7.34-4.3-18.16-6.12-26.4-3.45
			c-8.29,2.68-16.29,7.82-20.47,15.74c-4.14,7.84-6.48,17.72-3.45,26.4c24.42,70.03,50.63,139.44,78.63,208.12
			c15.04,36.88,30.55,73.58,46.53,110.06c13.65,31.16,27.36,62.38,43.3,92.45c18.57,35.03,40.74,68.49,67.97,97.42
			c9.99,10.61,29.1,13.36,41.51,5.36c12.85-8.29,19.82-23.55,15.74-38.69c-13.78-51.18-25.01-103.03-33.56-155.34
			c-2.42-14.81-4.63-29.65-6.63-44.53c0.41,3.04,0.82,6.07,1.22,9.11c-6.73-50.37-11.06-101.06-12.85-151.86
			c-0.51-14.45-0.81-28.9-0.92-43.35c-22.43,3.04-44.86,6.07-67.29,9.11c12.28,46.14,21.66,93.02,28.06,140.33
			c-0.41-3.04-0.82-6.07-1.22-9.11c7.68,57.31,10.99,115.16,9.78,172.98c21.28-5.76,42.56-11.53,63.84-17.29
			c-9.6-21.32-18.96-42.75-28.05-64.29c1.15,2.73,2.3,5.46,3.45,8.18c-36.1-85.6-68.13-172.92-95.84-261.59
			c-3.91-12.52-7.74-25.06-11.48-37.63c-3.32-11.17-7.77-22.63-9.37-34.2c0.41,3.04,0.82,6.07,1.22,9.11
			c-0.29-2.57-0.37-5.09-0.07-7.66c-0.41,3.04-0.82,6.07-1.22,9.11c0.24-1.46,0.59-2.83,1.15-4.2c-1.15,2.73-2.3,5.46-3.45,8.18
			c0.37-0.77,0.76-1.44,1.24-2.14c-1.79,2.31-3.57,4.62-5.36,6.93c0.54-0.66,1.07-1.2,1.72-1.76c-2.31,1.79-4.62,3.57-6.93,5.36
			c0.74-0.53,1.43-0.93,2.25-1.32c-2.73,1.15-5.46,2.3-8.18,3.45c0.79-0.33,1.6-0.56,2.45-0.69c-3.04,0.41-6.07,0.82-9.11,1.22
			c1.77-0.19,3.41-0.13,5.17,0.1c-3.04-0.41-6.07-0.82-9.11-1.22c7.34,1.31,14.52,3.89,21.38,6.77c-2.73-1.15-5.46-2.3-8.18-3.45
			c11.02,4.74,21.27,10.9,30.8,18.17c-2.31-1.79-4.62-3.57-6.93-5.36c12.1,9.38,22.8,20.36,32.2,32.42
			c-1.79-2.31-3.57-4.62-5.36-6.93c12.32,16,22.03,33.65,29.89,52.23c-1.15-2.73-2.3-5.46-3.45-8.18
			c10.1,24.18,17.05,49.48,22.97,74.97c6.28,27.01,11.88,54.19,17.73,81.3c12.15,56.24,24.3,112.48,36.44,168.72
			c6.88,31.85,13.76,63.71,20.64,95.56c20.87-8.8,41.74-17.6,62.61-26.4c-24.22-33.51-44.68-69.57-62.24-106.98
			c-4.98-10.62-9.73-21.34-14.3-32.14c1.15,2.73,2.3,5.46,3.45,8.18c-27.53-65.3-48.02-133.23-68.85-200.87
			c-21.55-69.97-43.91-139.68-73.83-206.61c-16.16-36.15-34.79-71.21-56.75-104.19c-17.93,13.84-35.87,27.68-53.8,41.51
			c45.32,53.09,101.14,95.63,149.74,145.48c13.56,13.91,26.52,28.41,38.43,43.77c-1.79-2.31-3.57-4.62-5.36-6.93
			c18.29,23.74,33.38,49.44,45.09,77.04c-1.15-2.73-2.3-5.46-3.45-8.18c13.45,32.02,22.62,65.6,30.08,99.46
			c7.79,35.34,14.31,71,20.68,106.62c3.85,21.5,7.39,43.05,10.32,64.69c-0.41-3.04-0.82-6.07-1.22-9.11
			c7.28,54.32,10.54,109.5,3.26,164c0.41-3.04,0.82-6.07,1.22-9.11c-1.06,7.72-2.32,15.41-3.79,23.06
			c19.09-5.04,38.17-10.08,57.26-15.12c-39.01-31.01-78.02-62.02-117.03-93.02c-19.11-15.19-38.21-30.38-57.32-45.56
			c-18.02-14.32-36.23-28.46-53.75-43.39c-18.82-16.03-36.75-33.19-51.98-52.73c1.79,2.31,3.57,4.62,5.36,6.93
			c-15.14-19.63-27.04-41.4-36.73-64.17c1.15,2.73,2.3,5.46,3.45,8.18c-20.21-47.99-32.38-99.63-39.35-151.12
			c0.41,3.04,0.82,6.07,1.22,9.11c-7.14-53.57-8.11-107.84-3.8-161.69c1.22-15.28,2.88-30.52,4.92-45.71
			c-0.41,3.04-0.82,6.07-1.22,9.11c4.86-35.88,11.91-71.42,20.91-106.49c-22.02,0-44.04,0-66.07,0
			c16.27,87.76,32.53,175.51,48.8,263.27c4.59,24.75,9.18,49.5,13.76,74.26c1.43,7.69,8.94,16.88,15.74,20.47
			c6.92,3.66,14.05,5.11,21.84,4.07c7.19-0.97,14.62-3.92,19.67-9.42c5.8-6.32,10.91-15.32,10.03-24.22
			c-3.92-39.91-7.84-79.82-11.77-119.73c-0.91-9.3-3.21-17.4-10.03-24.22c-5.94-5.94-15.69-10.42-24.22-10.03
			c-8.86,0.4-18.05,3.31-24.22,10.03C1063.3,864.74,1058.19,873.75,1059.06,882.65L1059.06,882.65z"/>
	</g>
</g>
<g>
	<g>
		<path class="st1" d="M255.86,246.2c-40.83,56.33-71.65,120.2-91.45,186.86c-5.49,18.5-10.06,37.25-13.75,56.19
			c22.43,3.04,44.86,6.07,67.29,9.11c0.26-13.65,1.3-27.26,3.1-40.79c-0.41,3.04-0.82,6.07-1.22,9.11
			c4.3-31.41,12.72-62.12,25.01-91.35c-1.15,2.73-2.3,5.46-3.45,8.18c11.8-27.77,27-53.98,45.39-77.91
			c-1.79,2.31-3.57,4.62-5.36,6.93c7.71-9.94,15.92-19.46,24.66-28.51c-19.09-11.11-38.17-22.22-57.26-33.33
			c-2.06,7.51-4.63,14.85-7.65,22.03c1.15-2.73,2.3-5.46,3.45-8.18c-9.35,21.82-22.67,41.52-37.09,60.27
			c1.79-2.31,3.57-4.62,5.36-6.93c-24.58,31.8-52.38,61.45-73.38,95.88c-24.72,40.53-35.8,86.26-39.2,133.24
			c-3.19,44.12,0.82,88.36,3.9,132.37c3.45,49.32,5.48,98.73,6.07,148.16c0.67,55.91-0.52,111.84-3.51,167.68
			c22.84,0,45.68,0,68.51,0c3.02-65.59,8.91-131.03,17.63-196.1c-0.41,3.04-0.82,6.07-1.22,9.11
			c11.04-81.86,26.55-163.1,46.56-243.24c20.01-80.14,44.5-159.16,73.38-236.54c6.86-18.38,15.04-36.55,17.97-56.09
			c2.12-14.09,2.76-27-0.44-41.09c-2.97-13.09-10.42-25.91-20.27-35.01c-9.08-8.38-21.17-12.16-33.33-8.81
			c-10.54,2.9-22.09,12.52-23.93,23.93c-16.97,105.39-33.95,210.79-50.92,316.18s-33.95,210.79-50.92,316.18
			c-4.4,27.35-8.45,54.79-13.42,82.05c-4.24,23.26-9.59,46.45-18.67,68.35c1.15-2.73,2.3-5.46,3.45-8.18
			c-5.31,12.57-11.85,24.53-20.1,35.43c1.79-2.31,3.57-4.62,5.36-6.93c-3.4,4.41-7.04,8.59-10.95,12.56
			c-6.19,6.29-10.03,15.37-10.03,24.22c0,8.4,3.73,18.44,10.03,24.22c13.59,12.47,35.01,13.64,48.45,0
			c36.35-36.92,50.91-87.62,59.58-137.32c9.75-55.84,18.13-111.95,27.14-167.92c9.28-57.61,18.56-115.22,27.83-172.84
			c9.32-57.88,18.64-115.77,27.97-173.65c9.28-57.61,18.56-115.22,27.83-172.84c1.14-7.1,2.29-14.2,3.43-21.3
			c-19.09,5.04-38.17,10.08-57.26,15.12c1.7,1.57,3.25,3.23,4.68,5.05c-1.79-2.31-3.57-4.62-5.36-6.93
			c1.76,2.38,3.21,4.88,4.43,7.57c-1.15-2.73-2.3-5.46-3.45-8.18c1.56,3.76,2.56,7.62,3.13,11.64c-0.41-3.04-0.82-6.07-1.22-9.11
			c0.74,6.18,0.49,12.35-0.34,18.51c0.41-3.04,0.82-6.07,1.22-9.11c-3.13,21.27-12.45,41.17-19.86,61.18
			c-8.63,23.29-16.86,46.72-24.68,70.29c-15.6,46.95-29.6,94.43-42.01,142.32c-25.53,98.57-43.98,198.79-56.24,299.85
			c-6.75,55.62-11.39,111.48-13.97,167.45c-0.83,17.93,16.35,35.06,34.26,34.26c19.38-0.87,33.23-15.06,34.26-34.26
			c3.41-63.51,4.47-127.14,3.13-190.73c-0.67-31.85-1.93-63.69-3.79-95.49c-1.71-29.28-4.26-58.51-5.79-87.8
			c-1.66-31.91-2-64.01,2.18-95.75c-0.41,3.04-0.82,6.07-1.22,9.11c3.03-22.23,8.36-44.06,17.03-64.79
			c-1.15,2.73-2.3,5.46-3.45,8.18c9.75-22.88,23.6-43.51,38.75-63.15c-1.79,2.31-3.57,4.62-5.36,6.93
			c28.14-36.32,61.17-70.14,81.91-111.56c6.6-13.18,12.31-27.03,16.22-41.26c3.87-14.09-2.42-31.65-15.74-38.69
			c-13.33-7.04-30.66-5.9-41.51,5.36c-51.48,53.39-87.48,122.45-101.06,195.42c-4.13,22.19-6.69,44.79-7.13,67.37
			c-0.33,17.07,13.29,31.44,29.7,33.65c15.71,2.11,34.32-7.76,37.59-24.54c7.92-40.68,20.05-80.45,36.15-118.64
			c-1.15,2.73-2.3,5.46-3.45,8.18c17.44-41.07,39.4-80.11,65.59-116.23c4.92-6.79,5.59-18.65,3.45-26.4
			c-2.19-7.95-8.33-16.56-15.74-20.47c-7.95-4.2-17.58-6.31-26.4-3.45C267.38,233.35,261.37,238.6,255.86,246.2L255.86,246.2z"/>
	</g>
</g>
<g>
	<g>
		<path class="st1" d="M132.15,1030.76c1.85-20.97,3.7-41.95,5.55-62.92c0.09-2.36-0.4-4.56-1.48-6.6
			c-0.69-2.12-1.87-3.96-3.54-5.51c-1.16-0.89-2.31-1.79-3.47-2.68c-1.97-1.25-4.09-1.93-6.37-2.03c-1.52-0.41-3.04-0.41-4.55,0
			c-2.28,0.1-4.4,0.78-6.37,2.03c-3.58,2.31-7.03,5.89-7.87,10.24c-4.64,23.96-9.33,47.91-14.75,71.7
			c-5.41,23.71-11.56,47.27-19.16,70.38c-4.23,12.85-8.92,25.56-14.17,38.03c0.58-1.36,1.15-2.73,1.73-4.09
			c-7.68,18.2-16.59,35.89-27.02,52.68c-2.96,4.77-6.05,9.45-9.26,14.06c10.44,4.4,20.87,8.8,31.31,13.2
			c5.23-18.26,10.61-36.49,17.21-54.31c1.88-5.08,3.86-10.12,5.97-15.11c-0.58,1.36-1.15,2.73-1.73,4.09
			c5.77-13.64,12.46-26.93,20.67-39.27c2.27-3.42,4.66-6.76,7.17-10.02c-0.89,1.16-1.79,2.31-2.68,3.47
			c7.55-9.76,16.19-18.64,25.96-26.2c-1.16,0.89-2.31,1.79-3.47,2.68c1-0.77,2.01-1.53,3.04-2.27c-8.59-4.93-17.18-9.86-25.77-14.79
			c-0.06,3.25-0.31,6.5-0.74,9.72c0.2-1.52,0.41-3.04,0.61-4.55c-1.02,7.35-2.99,14.53-5.87,21.37c0.58-1.36,1.15-2.73,1.73-4.09
			c-2.79,6.54-6.38,12.71-10.72,18.34c0.89-1.16,1.79-2.31,2.68-3.47c-1.56,2-3.21,3.94-4.95,5.79c-0.85,0.9-1.78,1.74-2.59,2.67
			c-3.51,4.03-5.8,8.67-5.92,14.12c-0.11,5.15,1.89,10.28,5.48,13.97c0.83,0.86,2.71,2.31,3.73,2.93c1.2,0.72,3.07,1.47,4.4,1.91
			c1.71,0.57,3.58,0.75,5.38,0.74c3.57-0.02,4.61-0.5,7.42-1.68c1.38-0.58,1.59-0.58,2.43-1.11c0.97-0.6,2.83-2.02,3.63-2.83
			c0.87-0.89,2.24-2.65,2.86-3.73c0.53-0.92,1.56-3.36,1.83-4.38c0.3-1.13,0.58-3.6,0.63-4.76c-0.03,0.98-0.21-3.62-0.73-4.99
			c-0.53-2.23-1.55-4.17-3.07-5.82c-1.21-1.86-2.81-3.34-4.81-4.41c-1.97-1.25-4.09-1.93-6.37-2.03c-2.28-0.51-4.55-0.41-6.83,0.31
			c-4.14,1.34-8.14,3.91-10.24,7.87c-2.04,3.86-3.33,8.94-1.73,13.2c0.07,0.14,0.11,0.29,0.12,0.44c-0.2-1.52-0.41-3.04-0.61-4.55
			c0,0.07-0.01,0.14-0.01,0.21c0.2-1.52,0.41-3.04,0.61-4.55c-0.02,0.07-0.04,0.13-0.06,0.2c0.58-1.36,1.15-2.73,1.73-4.09
			c-0.05,0.13-0.13,0.25-0.22,0.35c0.89-1.16,1.79-2.31,2.68-3.47c-0.05,0.05-0.11,0.1-0.16,0.15c1.16-0.89,2.31-1.79,3.47-2.68
			c-0.12,0.1-0.25,0.18-0.39,0.25c1.36-0.58,2.73-1.15,4.09-1.73c-0.24,0.1-0.44,0.16-0.7,0.2c1.52-0.2,3.04-0.41,4.55-0.61
			c-0.16,0.02-0.32,0.02-0.49,0c1.52,0.2,3.04,0.41,4.55,0.61c-0.16-0.02-0.32-0.06-0.46-0.12c1.36,0.58,2.73,1.15,4.09,1.73
			c-0.15-0.06-0.29-0.15-0.41-0.25c1.16,0.89,2.31,1.79,3.47,2.68c-0.06-0.06-0.11-0.12-0.17-0.18c0.89,1.16,1.79,2.31,2.68,3.47
			c-0.14-0.18-0.25-0.37-0.33-0.58c0.58,1.36,1.15,2.73,1.73,4.09c-0.08-0.2-0.13-0.41-0.15-0.63c0.2,1.52,0.41,3.04,0.61,4.55
			c-0.02-0.22-0.02-0.44,0.01-0.66c-0.2,1.52-0.41,3.04-0.61,4.55c0.06-0.35,0.15-0.65,0.27-0.98c-0.58,1.36-1.15,2.73-1.73,4.09
			c0.15-0.32,0.32-0.6,0.52-0.9c-0.89,1.16-1.79,2.31-2.68,3.47c1.3-1.62,2.94-3.02,4.32-4.58c2.3-2.59,4.4-5.36,6.49-8.12
			c2.59-3.41,4.91-7.03,6.93-10.81c4.67-8.71,8.33-18.23,10.18-27.96c1.17-6.14,1.95-12.42,2.07-18.67
			c0.11-6.01-3.35-11.78-8.48-14.79c-2.67-1.55-5.55-2.33-8.65-2.34c-3.09,0.01-5.97,0.79-8.65,2.34c-10,7.29-19.23,15.4-27.29,24.8
			c-8.01,9.34-15.19,19.42-21.36,30.06c-6.31,10.87-11.5,22.28-16.35,33.86c-4.4,10.5-8.25,21.21-11.8,32.03
			c-3.98,12.14-7.56,24.4-11.08,36.68c-0.71,2.28-0.82,4.55-0.31,6.83c0.1,2.28,0.78,4.4,2.03,6.37c0.89,1.16,1.79,2.31,2.68,3.47
			c1.55,1.67,3.39,2.85,5.51,3.54c1.34,0.77,2.78,1.16,4.32,1.17c2.28,0.51,4.55,0.41,6.83-0.31c1.36-0.58,2.73-1.15,4.09-1.73
			c2.57-1.52,4.62-3.57,6.14-6.14c9.72-13.97,18.3-28.69,25.85-43.93c8.12-16.39,15.18-33.34,21.37-50.54
			c5.8-16.11,10.81-32.5,15.27-49.03c4.5-16.66,8.44-33.47,12.08-50.34c3.64-16.87,6.99-33.8,10.28-50.74
			c0.41-2.12,0.82-4.23,1.23-6.35c-11.22-1.52-22.43-3.04-33.65-4.55c-1.85,20.97-3.7,41.95-5.55,62.92
			c-0.09,2.36,0.4,4.56,1.48,6.6c0.69,2.12,1.87,3.96,3.54,5.51c2.97,2.97,7.85,5.21,12.11,5.02c4.43-0.2,9.02-1.65,12.11-5.02
			c0.89-1.16,1.79-2.31,2.68-3.47C131.36,1036.73,132.14,1033.85,132.15,1030.76L132.15,1030.76z"/>
	</g>
</g>
<g>
	<g>
		<path class="st1" d="M297.03,116.07c-1.02-10.54-2.44-21.06-4.28-31.49c-11.01,3.04-22.02,6.07-33.03,9.11
			c7.71,29.82,16.23,59.45,22.13,89.71c1.59,8.15,3.01,16.33,4.12,24.56c-0.2-1.52-0.41-3.04-0.61-4.55
			c2.33,17.48,3.2,35.23,0.89,52.76c0.2-1.52,0.41-3.04,0.61-4.55c-0.9,6.69-2.26,13.3-4.14,19.79c-1.23,4.24-0.49,9.41,1.73,13.2
			c2.08,3.55,6.15,6.94,10.24,7.87c4.38,1,9.31,0.78,13.2-1.73c3.78-2.44,6.6-5.84,7.87-10.24c7.24-25.02,7.27-51.46,3.86-77.09
			c-3.47-26.06-9.26-51.63-15.86-77.05c-3.62-13.94-7.4-27.83-11.01-41.78c-1.07-4.13-4.21-8.09-7.87-10.24
			c-1.97-1.25-4.09-1.93-6.37-2.03c-2.28-0.51-4.55-0.41-6.83,0.31c-4.14,1.34-8.14,3.91-10.24,7.87c-0.58,1.36-1.15,2.73-1.73,4.09
			c-0.82,3.04-0.82,6.07,0,9.11c0.83,4.71,1.56,9.43,2.2,14.16c-0.2-1.52-0.41-3.04-0.61-4.55c0.57,4.25,1.05,8.5,1.47,12.77
			c-0.09,2.36,0.4,4.56,1.48,6.6c0.69,2.12,1.87,3.96,3.54,5.51c2.97,2.97,7.85,5.21,12.11,5.02c4.43-0.2,9.02-1.65,12.11-5.02
			C294.91,125.02,297.46,120.53,297.03,116.07L297.03,116.07z"/>
	</g>
</g>
<g>
	<g>
		<path class="st1" d="M293.92,204.9c2.7-17.27,4.38-34.66,4.62-52.14c0.06-4.35-1.95-9.05-5.02-12.11
			c-2.97-2.97-7.85-5.21-12.11-5.02c-4.43,0.2-9.02,1.65-12.11,5.02c-3.1,3.38-4.95,7.45-5.02,12.11
			c-0.19,13.47-1.16,26.92-2.95,40.27c0.2-1.52,0.41-3.04,0.61-4.55c-0.33,2.44-0.68,4.88-1.06,7.31c-0.71,2.28-0.82,4.55-0.31,6.83
			c0.1,2.28,0.78,4.4,2.03,6.37c2.08,3.55,6.15,6.94,10.24,7.87c4.38,1,9.31,0.78,13.2-1.73c1.16-0.89,2.31-1.79,3.47-2.68
			C291.64,210.33,293.11,207.81,293.92,204.9L293.92,204.9z"/>
	</g>
</g>
<g>
	<g>
		<path class="st1" d="M273.62,231.71c0.85,82.67-2.89,165.38-11.28,247.63c-2.36,23.2-5.1,46.35-8.19,69.46
			c0.41-3.04,0.82-6.07,1.22-9.11c-7.37,54.83-16.77,109.37-28.24,163.49c-11.39,53.75-24.82,107.07-40.26,159.8
			c-8.11,27.68-16.39,55.43-27.53,82.07c1.15-2.73,2.3-5.46,3.45-8.18c-8.68,20.54-19.19,40.29-32.84,57.98
			c1.79-2.31,3.57-4.62,5.36-6.93c-1.65,2.11-3.33,4.18-5.05,6.23c-5.97,7.1-10.03,14.65-10.03,24.22c0,8.4,3.73,18.44,10.03,24.22
			c6.53,5.99,15.1,10.44,24.22,10.03c8.62-0.39,18.45-3.16,24.22-10.03c17.23-20.49,31.02-42.89,41.66-67.43
			c10.75-24.8,19.42-50.19,27.24-76.04c15.61-51.63,29.27-103.84,40.98-156.48c11.73-52.76,21.51-105.95,29.31-159.43
			c8.16-55.89,14.5-112.04,18.58-168.38c3.92-54.15,5.85-108.45,5.78-162.75c-0.01-6.8-0.05-13.59-0.12-20.39
			c-0.09-8.84-3.76-17.95-10.03-24.22c-5.94-5.94-15.69-10.42-24.22-10.03C289.47,198.28,273.42,212.51,273.62,231.71L273.62,231.71
			z"/>
	</g>
</g>
<g>
	<g>
		<path class="st1" d="M985.65,643.7c2.54,77.57,5.08,155.14,7.62,232.71c0.73,22.16,1.45,44.33,2.18,66.49
			c21.28-5.76,42.56-11.53,63.84-17.29c-0.57-1.32-1.14-2.64-1.7-3.97c1.15,2.73,2.3,5.46,3.45,8.18
			c-9.97-23.87-16.77-48.91-20.3-74.54c0.41,3.04,0.82,6.07,1.22,9.11c-3.38-25.43-3.49-51.17-0.14-76.62
			c-0.41,3.04-0.82,6.07-1.22,9.11c0.19-1.4,0.39-2.81,0.6-4.21c-22.43-3.04-44.86-6.07-67.29-9.11
			c3.19,78.42,12.49,156.71,27.49,233.75c4.16,21.38,8.8,42.65,13.88,63.83c22.02-6.07,44.04-12.14,66.07-18.21
			c-22.5-58.75-39.14-119.64-49.54-181.69c-1.28-7.64-9.06-16.94-15.74-20.47c-6.92-3.66-14.05-5.11-21.84-4.07
			c-16.43,2.21-30.02,16.5-29.7,33.65c1.56,83.23,19.83,168.06,56.63,242.98c16.21,33,38.25,62.76,64.13,88.83
			c22.64,22.8,47.72,42.96,72.29,63.6c27,22.68,53.68,46.16,75.34,74.16c-1.79-2.31-3.57-4.62-5.36-6.93
			c6.96,9.08,13.33,18.56,18.97,28.52c17.93-13.84,35.87-27.68,53.8-41.51c-40.14-35.37-80.29-70.74-120.43-106.11
			c-16.15,16.15-32.3,32.3-48.45,48.45c58.75,47.12,117.49,94.24,176.24,141.35c16.7,13.39,33.39,26.78,50.09,40.17
			c7.34,5.89,14.43,10.03,24.22,10.03c8.4,0,18.44-3.73,24.22-10.03c13.04-14.21,12.9-34.27,0-48.45
			c-18.11-19.91-35.4-40.56-51.88-61.84c1.79,2.31,3.57,4.62,5.36,6.93c-27.87-36.08-53.41-73.93-76.8-113.06
			c-23.43-39.19-44.72-79.64-64.29-120.89c-11.16-23.52-21.74-47.3-31.87-71.28c1.15,2.73,2.3,5.46,3.45,8.18
			c-21.11-50.06-40.17-100.95-57.92-152.28c-17.78-51.41-34.26-103.27-50.2-155.28c-8.93-29.13-17.7-58.32-26.43-87.51
			c-2.51-8.37-8.14-16.02-15.74-20.47c-7.34-4.3-18.16-6.12-26.4-3.45c-8.29,2.68-16.29,7.82-20.47,15.74
			c-4.51,8.54-5.2,16.9-3.45,26.4c16,86.83,32.01,173.66,48.01,260.48c7.14,38.71,13.54,77.65,22.02,116.1
			c7.56,34.3,17.7,67.82,32.64,99.68c17.35,37,43.42,69.14,77.42,92.01c7.1,4.78,18.36,5.67,26.4,3.45
			c7.95-2.19,16.56-8.33,20.47-15.74c4.2-7.95,6.31-17.58,3.45-26.4c-2.85-8.8-8.03-15.29-15.74-20.47
			c-3.19-2.14-6.3-4.39-9.34-6.73c2.31,1.79,4.62,3.57,6.93,5.36c-11.28-8.83-21.3-19.05-30.1-30.33c1.79,2.31,3.57,4.62,5.36,6.93
			c-12.53-16.26-22.37-34.32-30.37-53.19c1.15,2.73,2.3,5.46,3.45,8.18c-20.09-47.88-28.54-99.5-37.89-150.26
			c-12.07-65.51-24.15-131.02-36.22-196.53c-6.8-36.91-13.61-73.83-20.41-110.74c-22.02,6.07-44.04,12.14-66.07,18.21
			c15.99,53.42,32.07,106.82,49.09,159.92c17.02,53.09,34.97,105.89,54.69,158.04c20.5,54.22,42.83,107.83,67.8,160.15
			c23.82,49.89,50.19,98.59,79.81,145.28c30.84,48.6,65.25,95.12,103.11,138.49c4.51,5.17,9.08,10.29,13.7,15.37
			c16.15-16.15,32.3-32.3,48.45-48.45c-58.75-47.12-117.49-94.24-176.24-141.35c-16.7-13.39-33.39-26.78-50.09-40.17
			c-7.34-5.89-14.43-10.03-24.22-10.03c-8.4,0-18.44,3.73-24.22,10.03c-5.99,6.53-10.44,15.1-10.03,24.22
			c0.39,8.75,3.24,18.23,10.03,24.22c40.14,35.37,80.29,70.74,120.43,106.11c6.55,5.77,15.14,10.44,24.22,10.03
			c7.73-0.35,14.6-2.6,20.76-7.36c13.48-10.42,17.32-29.19,8.82-44.19c-37.81-66.75-102.83-108.49-157.74-159.48
			c-15.02-13.95-29.27-28.75-41.84-44.97c1.79,2.31,3.57,4.62,5.36,6.93c-16.74-21.8-29.84-46.01-40.53-71.28
			c1.15,2.73,2.3,5.46,3.45,8.18c-18.8-44.86-31.21-92.48-37.71-140.65c0.41,3.04,0.82,6.07,1.22,9.11
			c-2.83-21.37-4.46-42.86-4.86-64.41c-22.43,3.04-44.86,6.07-67.29,9.11c10.4,62.04,27.04,122.94,49.54,181.69
			c3.28,8.56,7.57,15.69,15.74,20.47c7.34,4.3,18.16,6.12,26.4,3.45c18.15-5.87,28.41-23.46,23.93-42.14
			c-11.96-49.87-21.38-100.33-28.22-151.16c0.41,3.04,0.82,6.07,1.22,9.11c-6.08-45.56-10.07-91.38-11.93-137.31
			c-0.7-17.13-12.51-31.33-29.7-33.65c-7.3-0.98-15.46-0.05-21.84,4.07c-6.97,4.49-14.48,11.88-15.74,20.47
			c-2.38,16.17-4.18,32.34-4.31,48.7c-0.12,15.36,1.2,30.57,3.24,45.79c2.02,15.03,4.77,29.88,8.86,44.5
			c4.49,16.06,10.56,31.47,17.21,46.75c1.79,2.31,3.57,4.62,5.36,6.93c3.1,3.34,6.78,5.7,11.02,7.08
			c6.81,2.87,15.08,4.07,22.31,1.73c14.06-4.55,25.66-17.57,25.15-33.03c-2.54-77.57-5.08-155.14-7.62-232.71
			c-0.73-22.16-1.45-44.33-2.18-66.49c-0.29-8.96-3.62-17.81-10.03-24.22c-5.94-5.94-15.69-10.42-24.22-10.03
			c-8.86,0.4-18.05,3.31-24.22,10.03C989.64,626.06,985.34,634.53,985.65,643.7L985.65,643.7z"/>
	</g>
</g>
<g>
	<g>
		<path class="st1" d="M1042,630.26c-4-27-8-54-11.99-81c-1.13-7.63-2.26-15.27-3.39-22.9c-0.53-2.23-1.55-4.17-3.07-5.82
			c-1.21-1.86-2.81-3.34-4.81-4.41c-1.97-1.25-4.09-1.93-6.37-2.03c-2.28-0.51-4.55-0.41-6.83,0.31c-4.14,1.34-8.14,3.91-10.24,7.87
			c-0.58,1.36-1.15,2.73-1.73,4.09c-0.82,3.04-0.82,6.07,0,9.11c2.85,19.33,5.71,38.66,8.56,58c2.85,19.33,5.71,38.66,8.56,58
			c1.6,10.86,3.21,21.72,4.81,32.58c0.53,2.23,1.55,4.17,3.07,5.82c1.21,1.86,2.81,3.34,4.81,4.41c1.36,0.58,2.73,1.15,4.09,1.73
			c2.28,0.71,4.55,0.82,6.83,0.31c1.55,0,2.99-0.39,4.32-1.17c2.12-0.69,3.96-1.87,5.51-3.54c3.08-3.36,4.99-7.46,5.02-12.11
			c0.09-17.48-6.42-33.6-13.16-49.38c-1.64-3.84-3.31-7.66-4.94-11.5c0.58,1.36,1.15,2.73,1.73,4.09
			c-3.85-9.13-7.5-18.52-8.88-28.39c0.2,1.52,0.41,3.04,0.61,4.55c-0.58-4.3-0.68-8.64-0.13-12.96c-0.2,1.52-0.41,3.04-0.61,4.55
			c0.43-3.15,1.21-6.23,2.34-9.21c0.71-2.28,0.82-4.55,0.31-6.83c-0.1-2.28-0.78-4.4-2.03-6.37c-2.08-3.55-6.15-6.94-10.24-7.87
			c-4.38-1-9.31-0.78-13.2,1.73c-1.16,0.89-2.31,1.79-3.47,2.68c-2.12,2.14-3.59,4.66-4.41,7.56c-2.01,5.32-2.89,11.09-3.24,16.74
			c-0.35,5.53,0.41,11.11,1.34,16.54c1.51,8.84,4.77,17.29,8.22,25.53c2.57,6.13,5.24,12.22,7.83,18.34
			c-0.58-1.36-1.15-2.73-1.73-4.09c4.16,9.88,8.06,20.02,9.5,30.71c-0.2-1.52-0.41-3.04-0.61-4.55c0.35,2.7,0.53,5.41,0.52,8.13
			c11.22-1.52,22.43-3.04,33.65-4.55c-2.85-19.33-5.71-38.66-8.56-58c-2.85-19.33-5.71-38.66-8.56-58
			c-1.6-10.86-3.21-21.72-4.81-32.58c-11.01,3.04-22.02,6.07-33.03,9.11c4,27,8,54,11.99,81c1.13,7.63,2.26,15.27,3.39,22.9
			c0.53,2.23,1.55,4.17,3.07,5.83c1.21,1.86,2.81,3.34,4.81,4.41c1.97,1.25,4.09,1.93,6.37,2.03c2.28,0.51,4.55,0.41,6.83-0.31
			c4.14-1.34,8.14-3.91,10.24-7.87c0.58-1.36,1.15-2.73,1.73-4.09C1042.81,636.33,1042.81,633.3,1042,630.26L1042,630.26z"/>
	</g>
</g>
<g>
	<g>
		<path class="st1" d="M1268.49,1382.43c11.59,12.89,22.97,25.97,34.15,39.22c6.92-8.97,13.84-17.93,20.76-26.9
			c-1.71-1.26-3.41-2.54-5.09-3.84c1.16,0.89,2.31,1.79,3.47,2.68c-12.98-10.04-25.04-21.21-36.04-33.39
			c-1.55-1.67-3.39-2.85-5.51-3.54c-2.04-1.07-4.24-1.56-6.6-1.48c-1.52,0.2-3.04,0.41-4.55,0.61c-2.23,0.53-4.17,1.55-5.82,3.07
			c-1.29,0.76-2.31,1.79-3.07,3.07c-1.51,1.65-2.54,3.6-3.07,5.82c-1.03,4.52-0.61,9.1,1.73,13.2c9.08,15.88,20.32,30.7,33.07,43.81
			c1.55,1.67,3.39,2.85,5.51,3.54c2.04,1.07,4.24,1.56,6.6,1.48c1.52-0.2,3.04-0.41,4.55-0.61c2.23-0.53,4.17-1.55,5.83-3.07
			c1.29-0.76,2.31-1.79,3.07-3.07c1.51-1.65,2.54-3.6,3.07-5.82c1.01-4.44,0.72-9.23-1.73-13.2c-4.59-7.44-9.89-14.49-15.6-21.1
			c-4.87-5.63-10.19-10.87-15.9-15.64c-4.24-3.54-8.64-6.92-13.18-10.07c-1.36-0.58-2.73-1.15-4.09-1.73
			c-2.28-0.71-4.55-0.82-6.83-0.31c-1.55,0-2.99,0.39-4.32,1.17c-2.12,0.69-3.96,1.87-5.51,3.54c-2.01,2.19-3.49,4.73-4.41,7.56
			c-1.38,4.25-0.34,9.39,1.73,13.2c5.37,9.91,12.42,19.06,20.26,27.14c7.9,8.14,16.89,15.21,26.12,21.77
			c16.9,12.03,35.26,21.78,53.02,32.44c10.02,6.02,19.89,12.34,29.17,19.48c-1.16-0.89-2.31-1.79-3.47-2.68
			c9.37,7.24,18.08,15.34,25.42,24.66c1.16,0.89,2.31,1.79,3.47,2.68c1.97,1.25,4.09,1.93,6.37,2.03c1.52,0.41,3.04,0.41,4.55,0
			c2.28-0.1,4.4-0.78,6.37-2.03c2.48-1.6,4.55-3.67,6.14-6.14c1.25-1.97,1.93-4.09,2.03-6.37c0.51-2.28,0.41-4.55-0.31-6.83
			c-6.02-17.26-15.85-33.11-29.22-45.66c-3.27-3.07-7.58-5.02-12.11-5.02c-4.2,0-9.22,1.87-12.11,5.02c-3,3.26-5.22,7.55-5.02,12.11
			c0.2,4.46,1.67,8.98,5.02,12.11c3.77,3.53,7.24,7.36,10.39,11.44c-0.89-1.16-1.79-2.31-2.68-3.47
			c4.91,6.41,9.01,13.41,12.18,20.84c-0.58-1.36-1.15-2.73-1.73-4.09c0.81,1.92,1.55,3.86,2.24,5.82
			c9.54-5.56,19.09-11.11,28.63-16.67c-12.14-15.41-28.05-27.61-44.38-38.28c-15.56-10.17-31.94-18.97-47.81-28.64
			c-8.76-5.34-17.37-10.96-25.5-17.23c1.16,0.89,2.31,1.79,3.47,2.68c-9.05-7.01-17.47-14.87-24.51-23.92
			c0.89,1.16,1.79,2.31,2.68,3.47c-3.4-4.4-6.46-9.05-9.11-13.94c-7.81,7.81-15.62,15.62-23.44,23.44c1.96,1.36,3.89,2.77,5.78,4.23
			c-1.16-0.89-2.31-1.79-3.47-2.68c9.22,7.15,17.5,15.45,24.64,24.67c-0.89-1.16-1.79-2.31-2.68-3.47
			c2.91,3.78,5.62,7.71,8.12,11.77c8.97-6.92,17.93-13.84,26.9-20.76c-5.32-5.47-10.32-11.23-14.99-17.26
			c0.89,1.16,1.79,2.31,2.68,3.47c-5.66-7.33-10.8-15.04-15.4-23.09c-8.97,6.92-17.93,13.84-26.9,20.76
			c13.43,14.87,28.47,28.03,44.6,39.9c1.97,1.25,4.09,1.93,6.37,2.03c2.28,0.51,4.55,0.41,6.83-0.31c1.36-0.58,2.73-1.15,4.09-1.73
			c2-1.08,3.6-2.55,4.81-4.41c1.06-1.07,1.8-2.33,2.2-3.78c1.07-2.04,1.56-4.24,1.48-6.6c-0.2-1.52-0.41-3.04-0.61-4.55
			c-0.81-2.9-2.28-5.42-4.4-7.56c-11.18-13.25-22.56-26.33-34.15-39.22c-1.55-1.67-3.39-2.85-5.51-3.54
			c-2.04-1.07-4.24-1.56-6.6-1.48c-4.2,0-9.22,1.87-12.11,5.02c-3,3.26-5.22,7.55-5.02,12.11c0.2,1.52,0.41,3.04,0.61,4.55
			C1264.9,1377.77,1266.37,1380.29,1268.49,1382.43L1268.49,1382.43z"/>
	</g>
</g>
<g>
	<g>
		<path class="st1" d="M140.64,1036.99c-1,4.51-2.44,8.89-4.22,13.15c0.58-1.36,1.15-2.73,1.73-4.09
			c-5.22,12.29-13.05,23.2-20.81,33.98c-8.28,11.5-16.57,22.99-25.01,34.37c-4.77,6.43-9.59,12.83-14.49,19.16
			c0.89-1.16,1.79-2.31,2.68-3.47c-12.88,16.66-26.28,32.93-40.66,48.32c-4.09,4.38-8.26,8.69-12.51,12.91
			c-3.11,3.09-5.02,7.73-5.02,12.11c0,4.2,1.87,9.22,5.02,12.11c3.26,3,7.55,5.22,12.11,5.02c4.55-0.2,8.82-1.74,12.11-5.02
			c18.97-18.87,36.23-39.36,52.6-60.51c9-11.63,17.82-23.39,26.49-35.28c7.75-10.63,15.58-21.22,23.06-32.04
			c4.03-5.83,7.87-11.82,11.09-18.15c3.79-7.44,7.06-15.32,8.87-23.49c0.99-4.48,0.63-9.17-1.73-13.2
			c-2.08-3.55-6.15-6.94-10.24-7.87c-4.38-1-9.31-0.78-13.2,1.73C144.86,1029.1,141.6,1032.63,140.64,1036.99L140.64,1036.99z"/>
	</g>
</g>
<g>
	<g>
		<path class="st0" d="M602.17,1644.85c0.87-9.78,1.73-19.57,2.6-29.35c-0.41-3.04-0.82-6.07-1.22-9.11
			c-1.06-4.46-3.1-8.34-6.13-11.65c-1.52-2.57-3.57-4.62-6.14-6.14c-3.31-3.03-7.19-5.07-11.65-6.13c-6.02-1.37-12.19-1.37-18.21,0
			c-4.46,1.06-8.34,3.1-11.65,6.13c-3.73,2.42-6.67,5.62-8.82,9.61c-8.99,16.32-17.98,32.64-26.97,48.96
			c20.87,8.8,41.74,17.6,62.61,26.4c2.04-5.49,4.19-10.94,6.47-16.34c-1.15,2.73-2.3,5.46-3.45,8.18
			c5.86-13.82,12.5-27.28,19.91-40.33c-20.87-8.8-41.74-17.6-62.61-26.4c-0.08,0.2-0.16,0.4-0.24,0.6c1.15-2.73,2.3-5.46,3.45-8.18
			c-1.2,2.77-2.71,5.34-4.55,7.73c1.79-2.31,3.57-4.62,5.36-6.93c-1.75,2.19-3.7,4.14-5.9,5.87c2.31-1.79,4.62-3.57,6.93-5.36
			c-0.17,0.13-0.34,0.26-0.51,0.39c16.77,12.9,33.55,25.79,50.32,38.69c5.54-36.83,19.08-71.72,32.55-106.24
			c13.4-34.33,27.05-69.03,32.62-105.65c2.04-13.42,3.69-26.91,3.8-40.5c0.13-15.02-1.58-29.94-3.97-44.75
			c-1.06-4.46-3.1-8.34-6.13-11.65c-2.42-3.73-5.62-6.67-9.61-8.82c-2.73-1.15-5.46-2.3-8.18-3.45c-4.55-1.43-9.11-1.63-13.66-0.61
			c-3.09,0.01-5.97,0.79-8.65,2.34c-4.25,1.38-7.92,3.74-11.02,7.08c-1.79,2.31-3.57,4.62-5.36,6.93
			c-3.1,5.34-4.66,11.11-4.68,17.29c-1.51,27.54-3.59,55.06-6.67,82.47c-0.87,7.72-1.82,15.44-2.85,23.14
			c0.41-3.04,0.82-6.07,1.22-9.11c-2.44,18.12-5.36,36.18-8.89,54.12c-3.41,17.29-7.24,34.55-12.33,51.43
			c-2.8,9.27-6,18.42-9.76,27.35c1.15-2.73,2.3-5.46,3.45-8.18c-5.46,12.87-12.23,25.01-19.94,36.66
			c-7.72,11.66-16.09,22.87-23.98,34.41c-4.31,6.3-8.53,12.67-13.18,18.73c1.79-2.31,3.57-4.62,5.36-6.93
			c-5.68,7.34-12.05,13.85-19.41,19.53c2.31-1.79,4.62-3.57,6.93-5.36c-10.55,8.06-21.82,15.29-32.91,22.58
			c-11,7.23-22.2,14.19-33.82,20.38c-6.65,3.55-13.45,6.83-20.39,9.77c2.73-1.15,5.46-2.3,8.18-3.45
			c-4.72,1.98-9.51,3.81-14.36,5.44c-4.46,1.06-8.34,3.1-11.65,6.13c-3.73,2.42-6.67,5.62-8.82,9.61c-2.5,3.93-3.86,8.18-4.07,12.74
			c-1.02,4.55-0.82,9.11,0.61,13.66c2.68,8.29,7.82,16.29,15.74,20.47c7.89,4.17,17.66,6.4,26.4,3.45
			c17.42-5.87,34.31-13.65,50.29-22.72c13.69-7.77,26.82-16.47,39.85-25.28c15.16-10.25,30.95-20.42,42.74-34.62
			c11.63-14.01,21.42-29.42,31.95-44.24c9.33-13.13,18.69-26.31,26.19-40.6c8.67-16.51,15.52-34.16,20.86-52.03
			c9.49-31.72,15.33-64.66,19.98-97.4c5.16-36.36,8.78-72.85,11.03-109.5c0.26-4.22,0.5-8.44,0.74-12.66
			c-22.43,3.04-44.86,6.07-67.29,9.11c0.34,2.1,0.65,4.2,0.93,6.31c-0.41-3.04-0.82-6.07-1.22-9.11
			c2.47,18.85,2.33,37.87-0.19,56.71c0.41-3.04,0.82-6.07,1.22-9.11c-3.96,29.08-13.16,57.07-23.46,84.44
			c-10.4,27.65-21.96,54.89-30.8,83.11c-4.96,15.83-9.01,31.95-11.49,48.37c-0.41,3.04-0.82,6.07-1.22,9.11
			c0.41,3.04,0.82,6.07,1.22,9.11c1.15,2.73,2.3,5.46,3.45,8.18c2.15,3.99,5.09,7.2,8.82,9.61c2.14,2.12,4.66,3.59,7.56,4.41
			c2.67,1.55,5.55,2.33,8.65,2.34c3.04,0.82,6.07,0.82,9.11,0c4.56-0.21,8.8-1.56,12.74-4.07c3.46-2.62,7.2-5.2,10.35-8.27
			c3.13-3.05,5.79-6.88,8.35-10.28c3.79-5.04,5.84-10.64,8.25-16.51c1.43-4.55,1.63-9.11,0.61-13.66c-0.21-4.56-1.56-8.8-4.07-12.74
			c-1.79-2.31-3.57-4.62-5.36-6.93c-3.1-3.34-6.78-5.7-11.02-7.08c-2.67-1.55-5.55-2.33-8.65-2.34c-4.55-1.02-9.11-0.82-13.66,0.61
			c-8.44,2.73-16,7.86-20.47,15.74c-11.76,20.7-21.56,42.53-29.83,64.85c-1.43,4.55-1.63,9.11-0.61,13.66
			c0.21,4.56,1.56,8.8,4.07,12.74c1.79,2.31,3.57,4.62,5.36,6.93c3.1,3.34,6.78,5.7,11.02,7.08c2.67,1.55,5.55,2.33,8.65,2.34
			c4.55,1.02,9.11,0.82,13.66-0.61c8.38-2.71,16.12-7.84,20.47-15.74c8.99-16.32,17.98-32.64,26.97-48.96
			c-21.28-5.76-42.56-11.53-63.84-17.29c-0.87,9.78-1.73,19.57-2.6,29.35c-0.18,4.72,0.81,9.12,2.95,13.2
			c1.38,4.25,3.74,7.92,7.08,11.02c3.1,3.34,6.78,5.7,11.02,7.08c4.08,2.14,8.48,3.13,13.2,2.95c8.86-0.4,18.05-3.31,24.22-10.03
			c1.79-2.31,3.57-4.62,5.36-6.93C600.6,1656.79,602.16,1651.03,602.17,1644.85L602.17,1644.85z"/>
	</g>
</g>
<g>
	<g>
		<path class="st1" d="M159.52,566.57c4.72,0.18,9.12-0.81,13.2-2.95c4.25-1.38,7.92-3.74,11.02-7.08c3.34-3.1,5.7-6.78,7.08-11.02
			c2.14-4.08,3.13-8.48,2.95-13.2c-0.41-3.04-0.82-6.07-1.22-9.11c-1.63-5.8-4.56-10.84-8.81-15.12c-2.31-1.79-4.62-3.57-6.93-5.36
			c-5.34-3.1-11.11-4.66-17.29-4.68c-4.72-0.18-9.12,0.81-13.2,2.95c-4.25,1.38-7.92,3.74-11.02,7.08c-3.34,3.1-5.7,6.78-7.08,11.02
			c-2.14,4.08-3.13,8.48-2.95,13.2c0.41,3.04,0.82,6.07,1.22,9.11c1.63,5.8,4.56,10.84,8.81,15.12c2.31,1.79,4.62,3.57,6.93,5.36
			C147.57,565,153.33,566.55,159.52,566.57L159.52,566.57z"/>
	</g>
</g>
<g>
	<g>
		<path class="st1" d="M637.23,1448.83c2.92-24.46,5.84-48.91,8.76-73.37c-0.41-3.04-0.82-6.07-1.22-9.11
			c-1.06-4.46-3.1-8.34-6.13-11.65c-1.52-2.57-3.57-4.62-6.14-6.14c-3.31-3.03-7.19-5.07-11.65-6.13c-3.04-0.41-6.07-0.82-9.11-1.22
			c-3.04,0.41-6.07,0.82-9.11,1.22c-4.46,1.06-8.34,3.1-11.65,6.13c-3.73,2.42-6.67,5.62-8.82,9.61
			c-10.72,24.88-22.48,49.42-35.72,73.07c-2.9,5.18-6.05,10.23-9.66,14.94c1.79-2.31,3.57-4.62,5.36-6.93
			c-3.14,4.03-6.61,7.78-10.65,10.92c2.31-1.79,4.62-3.57,6.93-5.36c-2.56,1.94-5.28,3.58-8.23,4.84c2.73-1.15,5.46-2.3,8.18-3.45
			c-2.46,1-4.98,1.7-7.61,2.09c3.04-0.41,6.07-0.82,9.11-1.22c-0.97,0.12-1.94,0.21-2.91,0.26c9.86,17.18,19.72,34.36,29.58,51.55
			c15.37-25.41,30.75-50.82,46.12-76.23c2.12-3.5,4.23-6.99,6.35-10.49c2.02-3.34,3.91-6.83,6.22-9.99
			c-1.79,2.31-3.57,4.62-5.36,6.93c0.85-1.1,1.76-2.09,2.85-2.96c-2.31,1.79-4.62,3.57-6.93,5.36c0.62-0.44,1.25-0.8,1.95-1.1
			c-2.73,1.15-5.46,2.3-8.18,3.45c0.55-0.19,1.06-0.32,1.64-0.41c-3.04,0.41-6.07,0.82-9.11,1.22c0.55-0.04,1.04-0.05,1.58,0
			c-3.04-0.41-6.07-0.82-9.11-1.22c0.64,0.1,1.23,0.25,1.84,0.49c-2.73-1.15-5.46-2.3-8.18-3.45c0.58,0.27,1.11,0.58,1.63,0.96
			c-2.31-1.79-4.62-3.57-6.93-5.36c0.79,0.64,1.45,1.35,2.08,2.15c-1.79-2.31-3.57-4.62-5.36-6.93c0.84,1.18,1.51,2.42,2.09,3.75
			c-1.15-2.73-2.3-5.46-3.45-8.18c1.76,4.3,2.37,9.01,2.99,13.58c-0.41-3.04-0.82-6.07-1.22-9.11c1.54,11.85,1.42,23.83-0.12,35.67
			c0.41-3.04,0.82-6.07,1.22-9.11c-2.02,14.9-6.23,29.38-12.06,43.23c1.15-2.73,2.3-5.46,3.45-8.18
			c-7.43,17.47-17.4,33.62-28.98,48.63c1.79-2.31,3.57-4.62,5.36-6.93c-26.24,33.8-59.42,61.27-90.87,89.98
			c-33.89,30.94-66.97,62.79-99.17,95.49c-18.07,18.35-35.87,36.98-53.39,55.86c17.93,13.84,35.87,27.68,53.8,41.51
			c18.53-35.59,38.27-70.53,59.22-104.75c20.8-33.97,42.76-67.22,65.86-99.68c13.06-18.36,26.49-36.46,40.26-54.3
			c-1.79,2.31-3.57,4.62-5.36,6.93c15.26-19.75,31.03-39.06,46.96-58.26c17.6-21.21,35.12-42.55,51.06-65.05
			c8.08-11.41,15.67-23.16,22.51-35.35c-20.87-8.8-41.74-17.6-62.61-26.4c-0.91,4.19-2.21,8.27-3.87,12.23
			c1.15-2.73,2.3-5.46,3.45-8.18c-2.94,6.9-6.9,13.27-11.45,19.21c1.79-2.31,3.57-4.62,5.36-6.93
			c-9.88,12.77-22.12,23.42-33.98,34.29c-13.69,12.54-26.76,25.78-36.85,41.5c-2.28,3.56-4.32,7.27-6.03,11.14
			c-2.93,6.65-5.85,13.27-7.54,20.35c-2.1,8.84-1.19,18.46,3.45,26.4c2.15,3.99,5.09,7.2,8.82,9.61c3.31,3.03,7.19,5.07,11.65,6.13
			c8.77,2,18.61,1.57,26.4-3.45c7.36-4.74,13.67-11.73,15.74-20.47c0.92-3.86,2.16-7.62,3.69-11.27c-1.15,2.73-2.3,5.46-3.45,8.18
			c2.96-6.91,6.95-13.3,11.52-19.25c-1.79,2.31-3.57,4.62-5.36,6.93c9.9-12.78,22.16-23.44,34.03-34.32
			c13.78-12.62,26.99-25.98,37.04-41.86c2.34-3.7,4.38-7.57,6.11-11.6c2.89-6.72,5.76-13.25,7.32-20.41
			c1.43-4.55,1.63-9.11,0.61-13.66c-0.21-4.56-1.56-8.8-4.07-12.74c-1.79-2.31-3.57-4.62-5.36-6.93c-3.1-3.34-6.78-5.7-11.02-7.08
			c-2.67-1.55-5.55-2.33-8.65-2.34c-4.55-1.02-9.11-0.82-13.66,0.61c-8.42,2.72-16.05,7.85-20.47,15.74
			c-10.91,19.43-23.73,37.69-37.33,55.31c1.79-2.31,3.57-4.62,5.36-6.93c-17.08,22.08-35.34,43.22-52.92,64.91
			c-19.41,23.95-38.25,48.38-56.47,73.25c-16.58,22.63-32.6,45.66-48.06,69.06c-15.53,23.52-30.49,47.43-44.86,71.68
			c-14.38,24.27-28.16,48.89-41.33,73.84c-1.64,3.11-3.27,6.22-4.89,9.33c-2.5,3.93-3.86,8.18-4.07,12.74
			c-1.02,4.55-0.82,9.11,0.61,13.66c1.15,2.73,2.3,5.46,3.45,8.18c2.15,3.99,5.09,7.2,8.82,9.61c2.14,2.12,4.66,3.59,7.56,4.41
			c4.08,2.14,8.48,3.13,13.2,2.95c8.89-0.4,18-3.33,24.22-10.03c29.89-32.2,60.58-63.65,92.06-94.3
			c15.65-15.23,31.48-30.27,47.51-45.1c15.43-14.28,31.15-28.25,46.7-42.41c15.01-13.68,29.78-27.68,43.3-42.86
			c14.95-16.8,29.01-34.94,39.78-54.75c6.01-11.05,11.08-22.71,15.39-34.53c3.33-9.14,5.92-18.55,7.61-28.13
			c2.18-12.4,3.74-25.07,3.38-37.69c-0.22-7.77-1.29-15.44-2.39-23.13c-0.62-4.36-1.27-8.76-2.9-12.88
			c-1.1-2.78-2.68-7.03-4.4-10.15c-1.71-3.07-4.62-6.4-6.5-8.72c-2.84-3.51-6.62-6.44-10.64-8.46c-2.9-1.46-6.55-3.28-10.02-3.94
			c-8.27-1.57-11.51-1.71-19.8,0c-7.47,1.55-14.09,5.98-19.59,11.06c-5.49,5.08-9.27,12.08-13.12,18.45
			c-2.96,4.9-5.92,9.79-8.89,14.69c-11.71,19.35-23.41,38.7-35.12,58.04c-2.96,4.9-5.92,9.79-8.89,14.69
			c-6.31,10.44-6.12,24.13,0,34.58c5.87,10.03,17.69,17.55,29.58,16.97c6.56-0.32,13.47-1.09,19.63-3.57
			c4.09-1.64,8.35-3.22,12.19-5.45c3.99-2.31,7.56-5.37,11.16-8.2c3.07-2.42,5.86-5.14,8.39-8.12c4.23-4.97,8.24-10.2,11.84-15.66
			c4.9-7.43,8.98-15.4,13.12-23.27c4.74-9.03,9.33-18.15,13.74-27.35c4.98-10.39,9.75-20.88,14.31-31.46
			c-21.28-5.76-42.56-11.53-63.84-17.29c-2.92,24.46-5.84,48.91-8.76,73.37c-0.18,4.72,0.81,9.12,2.95,13.2
			c1.38,4.25,3.74,7.92,7.08,11.02c3.1,3.34,6.78,5.7,11.02,7.08c4.08,2.14,8.48,3.13,13.2,2.95c8.86-0.4,18.05-3.31,24.22-10.03
			c1.79-2.31,3.57-4.62,5.36-6.93C635.65,1460.77,637.21,1455.01,637.23,1448.83L637.23,1448.83z"/>
	</g>
</g>
<g>
	<g>
		<path class="st1" d="M603.28,1267.02c-0.06,0.48-0.13,0.96-0.19,1.45c0.2-1.52,0.41-3.04,0.61-4.55
			c-3.51,26.1-7.7,52.1-12.59,77.97c-4.88,25.83-10.45,51.53-16.7,77.07c-3.5,14.28-7.21,28.51-11.13,42.68
			c-0.71,2.28-0.82,4.55-0.31,6.83c0.1,2.28,0.78,4.4,2.03,6.37c0.89,1.16,1.79,2.31,2.68,3.47c1.55,1.67,3.39,2.85,5.51,3.54
			c1.34,0.77,2.78,1.16,4.32,1.17c2.28,0.51,4.55,0.41,6.83-0.31c4.11-1.33,8.2-3.9,10.24-7.87c10.82-21.08,19.35-43.47,24.94-66.5
			c1.52-6.24,2.82-12.54,3.91-18.87c-11.01,0-22.02,0-33.03,0c0.26,1.78,0.51,3.57,0.75,5.35c-0.2-1.52-0.41-3.04-0.61-4.55
			c3.66,27.37,4.91,55.05,3.67,82.63c-0.35,7.8-0.91,15.6-1.66,23.37c11.42,0,22.84,0,34.26,0c-2.14-19.99-1.51-40.12-0.43-60.16
			c1.08-20.09,2.31-40.17,3.47-60.25c0.63-10.89,0.98-21.85,2.41-32.67c-0.2,1.52-0.41,3.04-0.61,4.55c0.83-6.11,2.08-12.16,4.1-18
			c0.71-2.28,0.82-4.55,0.31-6.83c-0.1-2.28-0.78-4.4-2.03-6.37c-2.08-3.55-6.15-6.94-10.24-7.87c-4.38-1-9.31-0.78-13.2,1.73
			c-1.16,0.89-2.31,1.79-3.47,2.68c-2.12,2.14-3.59,4.66-4.4,7.56c-3.93,11.37-5.15,23.62-5.96,35.56
			c-0.77,11.21-1.32,22.43-1.97,33.64c-1.31,22.67-3.04,45.36-3.56,68.07c-0.29,12.8-0.04,25.63,1.32,38.37
			c-0.09,2.36,0.4,4.56,1.48,6.6c0.69,2.12,1.87,3.96,3.54,5.51c2.97,2.97,7.85,5.21,12.11,5.02c4.43-0.2,9.02-1.65,12.11-5.02
			c0.89-1.16,1.79-2.31,2.68-3.47c1.55-2.67,2.33-5.55,2.34-8.65c2.79-29.07,2.82-58.39,0.1-87.46c-0.89-9.51-2.1-19-3.48-28.45
			c-0.58-1.36-1.15-2.73-1.73-4.09c-1.08-2-2.55-3.6-4.41-4.81c-1.07-1.06-2.33-1.8-3.78-2.2c-2.04-1.07-4.24-1.56-6.6-1.48
			c-3.04,0.14-5.95,0.92-8.65,2.34c-2,1.08-3.6,2.55-4.81,4.41c-1.51,1.65-2.54,3.6-3.07,5.83c-2.88,16.63-7.21,33.01-12.98,48.87
			c-1.64,4.51-3.4,8.97-5.26,13.39c0.58-1.36,1.15-2.73,1.73-4.09c-2.73,6.44-5.69,12.78-8.89,19.01c10.44,4.4,20.87,8.8,31.31,13.2
			c7.07-25.55,13.45-51.29,19.14-77.18c5.69-25.93,10.69-52.02,14.98-78.22c2.63-16.07,4.96-32.18,7.11-48.32
			c0.09-2.36-0.4-4.56-1.48-6.6c-0.69-2.12-1.87-3.96-3.54-5.51c-2.97-2.97-7.85-5.21-12.11-5.02c-4.43,0.2-9.02,1.65-12.11,5.02
			c-0.89,1.16-1.79,2.31-2.68,3.47C604.07,1261.05,603.29,1263.93,603.28,1267.02L603.28,1267.02z"/>
	</g>
</g>
<g>
	<g>
		<path class="st1" d="M556.44,1382.21c-12.51,12.68-24.52,25.85-36,39.47c-12.32,14.62-24.07,29.74-35.21,45.27
			c-5.85,8.15-11.51,16.43-17,24.83c9.86,5.76,19.72,11.53,29.58,17.29c6.73-14.82,15.22-28.75,24.68-41.97
			c2.7-3.78,5.49-7.5,8.33-11.18c-0.89,1.16-1.79,2.31-2.68,3.47c10.4-13.44,21.56-26.26,32.74-39.05
			c11.17-12.78,22.38-25.54,32.88-38.87c6.73-8.55,13.29-17.23,19.35-26.27c1.25-1.97,1.93-4.09,2.03-6.37
			c0.51-2.28,0.41-4.55-0.31-6.83c-0.58-1.36-1.15-2.73-1.73-4.09c-1.08-2-2.55-3.6-4.41-4.81c-1.07-1.06-2.33-1.8-3.78-2.2
			c-2.04-1.07-4.24-1.56-6.6-1.48c-4.53,0.2-8.85,1.73-12.11,5.02c-14.31,14.44-28.15,29.35-41.47,44.7
			c-14.1,16.24-27.58,32.99-40.59,50.1c-12.32,16.19-24.1,32.79-35.33,49.75c-11.2,16.91-21.85,34.19-31.92,51.8
			c-10.08,17.62-19.59,35.58-28.49,53.83c-1.1,2.26-2.19,4.52-3.28,6.79c-1.25,1.97-1.93,4.09-2.03,6.37
			c-0.51,2.28-0.41,4.55,0.31,6.83c1.09,3.97,4.17,8.28,7.87,10.24c3.98,2.1,8.79,3.15,13.2,1.73c4.04-1.31,8.33-3.89,10.24-7.87
			c11.09-23.18,23.13-45.9,36.09-68.09c12.95-22.16,26.81-43.78,41.54-64.79c8.29-11.83,16.86-23.46,25.69-34.89
			c-0.89,1.16-1.79,2.31-2.68,3.47c9.06-11.72,18.39-23.22,27.99-34.49c9.6-11.27,19.47-22.31,29.61-33.1
			c5.75-6.12,11.58-12.16,17.49-18.13c-8.97-6.92-17.93-13.84-26.9-20.76c-4.44,6.62-9.14,13.07-14.01,19.38
			c0.89-1.16,1.79-2.31,2.68-3.47c-13.55,17.53-28.38,34-42.89,50.72c-15.27,17.59-30.29,35.57-43.13,55.04
			c-6.77,10.27-12.87,20.99-17.96,32.2c-1.25,1.97-1.93,4.09-2.03,6.37c-0.51,2.28-0.41,4.55,0.31,6.83
			c1.09,3.97,4.17,8.28,7.87,10.24c3.98,2.1,8.79,3.15,13.2,1.73c4.37-1.41,7.71-4,10.24-7.87c9.87-15.12,20.34-29.84,31.37-44.13
			c-0.89,1.16-1.79,2.31-2.68,3.47c13.11-16.96,27.01-33.31,41.66-48.96c4.11-4.39,8.28-8.73,12.5-13.01
			c3.1-3.14,5.02-7.69,5.02-12.11c0-4.2-1.87-9.22-5.02-12.11c-3.26-3-7.55-5.22-12.11-5.02
			C564.03,1377.39,559.69,1378.91,556.44,1382.21L556.44,1382.21z"/>
	</g>
</g>
<g>
	<g>
		<path class="st0" d="M645.15,1554.44c1.86,9.89,3.71,19.79,5.57,29.68c0.65,3.48,5.04,5.78,8.32,4.72
			c3.72-1.21,5.42-4.59,4.72-8.32c-1.86-9.89-3.71-19.79-5.57-29.68c-0.65-3.48-5.04-5.78-8.32-4.72
			C646.15,1547.33,644.45,1550.71,645.15,1554.44L645.15,1554.44z"/>
	</g>
</g>
<g>
	<g>
		<path class="st1" d="M300.92,1749.15c-13.86,21.58-28.44,42.69-43.72,63.29c-4.37,5.88-8.79,11.73-13.27,17.53
			c1.79-2.31,3.57-4.62,5.36-6.93c-2.82,3.66-5.67,7.29-8.54,10.92c-3.34,3.1-5.7,6.78-7.08,11.02c-2.14,4.08-3.13,8.48-2.95,13.2
			c-0.18,4.72,0.81,9.12,2.95,13.2c1.38,4.25,3.74,7.92,7.08,11.02c2.31,1.79,4.62,3.57,6.93,5.36c5.34,3.1,11.11,4.66,17.29,4.68
			c3.04-0.41,6.07-0.82,9.11-1.22c5.8-1.63,10.84-4.56,15.12-8.81c20.01-25.27,39.22-51.16,57.23-77.9
			c4.63-6.87,9.17-13.79,13.65-20.76c2.5-3.93,3.86-8.18,4.07-12.74c1.02-4.55,0.82-9.11-0.61-13.66c-1.06-4.46-3.1-8.34-6.13-11.65
			c-2.42-3.73-5.62-6.67-9.61-8.82c-2.73-1.15-5.46-2.3-8.18-3.45c-6.07-1.63-12.14-1.63-18.21,0c-2.73,1.15-5.46,2.3-8.18,3.45
			C308.06,1739.91,303.97,1744.01,300.92,1749.15L300.92,1749.15z"/>
	</g>
</g>
<g>
	<g>
		<path class="st0" d="M447.31,1698.78c-20.49,13.67-39.88,29.03-58.78,44.82c-16.85,14.08-33.29,28.63-50.07,42.8
			c-9.4,7.93-18.91,15.74-28.64,23.26c2.31-1.79,4.62-3.57,6.93-5.36c-13.92,10.74-28.32,20.91-43.44,29.9
			c-4.3,2.56-8.65,5.01-13.06,7.37c-3.99,2.15-7.2,5.09-9.61,8.82c-3.03,3.31-5.07,7.19-6.13,11.65c-0.41,3.04-0.82,6.07-1.22,9.11
			c-0.18,4.72,0.81,9.12,2.95,13.2c0.81,2.9,2.28,5.42,4.4,7.56c2.42,3.73,5.62,6.67,9.61,8.82c2.73,1.15,5.46,2.3,8.18,3.45
			c6.07,1.63,12.14,1.63,18.21,0c22.17-6.19,44.1-13.26,65.72-21.17c24.22-8.87,48.08-18.77,71.55-29.45
			c20.96-9.54,41.55-19.88,61.73-30.97c20.11-11.05,39.81-22.84,59.05-35.33c19.32-12.54,38.19-25.78,56.55-39.69
			c2.26-1.71,4.51-3.43,6.75-5.16c3.99-2.15,7.2-5.09,9.61-8.82c3.03-3.31,5.07-7.19,6.13-11.65c1.43-4.55,1.63-9.11,0.61-13.66
			c-0.21-4.56-1.56-8.8-4.07-12.74c-1.79-2.31-3.57-4.62-5.36-6.93c-4.27-4.25-9.31-7.18-15.12-8.81c-3.04-0.41-6.07-0.82-9.11-1.22
			c-6.18,0.02-11.95,1.58-17.29,4.68c-24.83,19.14-50.58,37.08-77.18,53.69c-26.59,16.6-54.01,31.88-82.14,45.72
			c-15.74,7.74-31.7,15.03-47.86,21.86c2.73-1.15,5.46-2.3,8.18-3.45c-26.93,11.36-54.41,21.43-82.33,30.08
			c-7.85,2.43-15.74,4.75-23.67,6.96c8.8,20.87,17.6,41.74,26.4,62.61c25.57-13.67,48.89-30.93,71.51-48.97
			c20.6-16.42,40.29-33.94,60.34-51.01c11.27-9.6,22.65-19.06,34.36-28.11c-2.31,1.79-4.62,3.57-6.93,5.36
			c9.05-6.98,18.28-13.71,27.79-20.06c3.99-2.15,7.2-5.09,9.61-8.82c3.03-3.31,5.07-7.19,6.13-11.65c1.43-4.55,1.63-9.11,0.61-13.66
			c-0.21-4.56-1.56-8.8-4.07-12.74c-1.79-2.31-3.57-4.62-5.36-6.93c-4.27-4.25-9.31-7.18-15.12-8.81c-3.04-0.41-6.07-0.82-9.11-1.22
			C458.42,1694.13,452.65,1695.68,447.31,1698.78L447.31,1698.78z"/>
	</g>
</g>
<g>
	<g>
		<path class="st0" d="M572.19,1690.57c-7.85,4.77-15.7,9.54-23.56,14.31c-7.12,4.33-14.23,8.74-21.92,12.01
			c2.73-1.15,5.46-2.3,8.18-3.45c-4.4,1.84-8.97,3.28-13.7,3.95c3.04-0.41,6.07-0.82,9.11-1.22c-3,0.39-6.02,0.47-9.03,0.17
			c-4.72-0.18-9.12,0.81-13.2,2.95c-4.25,1.38-7.92,3.74-11.02,7.08c-3.34,3.1-5.7,6.78-7.08,11.02c-2.14,4.08-3.13,8.48-2.95,13.2
			c0.41,3.04,0.82,6.07,1.22,9.11c1.63,5.8,4.56,10.84,8.81,15.12c2.31,1.79,4.62,3.57,6.93,5.36c5.34,3.1,11.11,4.66,17.29,4.68
			c2.37,0.23,4.74,0.25,7.12,0.04c3.97-0.35,7.94-0.94,11.87-1.56c1.2-0.19,2.4-0.43,3.58-0.71c2.32-0.56,4.6-1.28,6.83-2.13
			c4.82-1.83,9.6-3.84,14.25-6.07c9.08-4.35,17.56-9.93,26.14-15.15c5.23-3.18,10.47-6.36,15.7-9.54c3.99-2.15,7.2-5.09,9.61-8.82
			c3.03-3.31,5.07-7.19,6.13-11.65c1.43-4.55,1.63-9.11,0.61-13.66c-0.21-4.56-1.56-8.8-4.07-12.74c-1.79-2.31-3.57-4.62-5.36-6.93
			c-4.27-4.25-9.31-7.18-15.12-8.81c-3.04-0.41-6.07-0.82-9.11-1.22C583.3,1685.92,577.54,1687.48,572.19,1690.57L572.19,1690.57z"
			/>
	</g>
</g>
<g>
	<g>
		<path class="st0" d="M274.39,1877.64c-8.28-0.14-15.8,2.65-23.46,5.32c-6.73,2.35-13.69,3.79-20.74,4.75
			c1.33-0.18,2.66-0.36,3.99-0.54c-6.08,0.81-12.19,1.29-18.3,1.77c2.52,9.32,5.05,18.63,7.57,27.95
			c8.44-6.4,17.09-12.74,24.41-20.44c6.24-6.57,11.39-14.05,17.34-20.86c3.38-3.86,7.05-7.4,11.1-10.55
			c-1.01,0.78-2.02,1.56-3.04,2.35c8.07-6.21,17.13-10.91,26.15-15.55c3.24-1.67,5.95-5.52,6.89-8.96
			c0.99-3.59,0.54-8.37-1.51-11.56c-2.06-3.2-5.14-6.02-8.96-6.89c-4.06-0.92-7.83-0.4-11.56,1.51
			c-11.89,6.12-23.58,12.53-33.57,21.56c-9.02,8.15-15.46,18.61-23.75,27.43c-4.93,5.25-10.51,9.83-16.19,14.23
			c1.01-0.78,2.02-1.56,3.04-2.35c-1.82,1.41-3.65,2.8-5.49,4.19c-1.01,0.78-2.02,1.56-3.04,2.35c-1.46,1.36-2.5,2.97-3.1,4.83
			c-1.26,2.98-1.78,6.6-0.76,9.77c0.8,2.47,2.1,4.7,3.86,6.62c1.36,1.46,2.97,2.5,4.83,3.1c1.79,0.94,3.71,1.37,5.78,1.29
			c10.63-0.82,21.34-1.7,31.79-3.92c4.57-0.97,9-2.32,13.39-3.9c4.34-1.56,8.69-3.17,13.28-3.8c-1.33,0.18-2.66,0.36-3.99,0.54
			c1.34-0.17,2.69-0.24,4.04-0.22c3.81,0.06,7.93-1.72,10.61-4.39c2.6-2.6,4.56-6.87,4.39-10.61c-0.17-3.88-1.45-7.9-4.39-10.61
			C282.04,1879.31,278.48,1877.71,274.39,1877.64L274.39,1877.64z"/>
	</g>
</g>
<g>
	<g>
		<path class="st1" d="M235.08,1843.03c-10.34,14.52-19.83,29.64-28.41,45.27c-1.91,3.47-2.57,7.7-1.51,11.56
			c0.96,3.48,3.65,7.25,6.89,8.96c3.48,1.84,7.7,2.76,11.56,1.51c3.66-1.19,7.06-3.43,8.96-6.89c8.58-15.63,18.07-30.74,28.41-45.27
			c1.1-1.72,1.69-3.58,1.78-5.58c0.45-1.99,0.36-3.99-0.27-5.98c-0.96-3.48-3.65-7.25-6.89-8.96c-3.48-1.84-7.7-2.76-11.56-1.51
			c-1.19,0.5-2.39,1.01-3.58,1.51C238.21,1838.99,236.41,1840.78,235.08,1843.03L235.08,1843.03z"/>
	</g>
</g>
<g>
	<g>
		<path class="st0" d="M230.11,1912.46c7.1-7.42,14.21-14.84,21.31-22.26c6.75-7.05,13.39-14.22,20.4-21.01
			c3.87-3.75,7.89-7.35,12.15-10.66c-1.01,0.78-2.02,1.56-3.04,2.35c0.84-0.65,1.69-1.29,2.55-1.91c1.75-0.94,3.15-2.23,4.21-3.86
			c1.33-1.45,2.22-3.15,2.68-5.1c0.99-3.59,0.54-8.37-1.51-11.56c-2.06-3.2-5.14-6.02-8.96-6.89c-3.71-0.84-8.35-0.82-11.56,1.51
			c-9.01,6.56-17.08,14.04-24.82,22.04c-7.38,7.62-14.68,15.31-22.01,22.97c-4.21,4.39-8.41,8.78-12.62,13.17
			c-2.7,2.82-4.39,6.67-4.39,10.61c0,3.68,1.63,8.07,4.39,10.61c2.86,2.62,6.61,4.57,10.61,4.39
			C223.43,1916.68,227.32,1915.37,230.11,1912.46L230.11,1912.46z"/>
	</g>
</g>
<g>
	<g>
		<path class="st1" d="M261.34,108.58c1.24,18.86,1.83,37.77,1.76,56.67c-0.02,4.38,1.92,9.02,5.02,12.11
			c2.97,2.97,7.85,5.21,12.11,5.02c4.43-0.2,9.02-1.65,12.11-5.02c3.08-3.36,5-7.47,5.02-12.11c0.07-18.9-0.52-37.81-1.76-56.67
			c-0.3-4.57-1.71-8.8-5.02-12.11c-2.97-2.97-7.85-5.21-12.11-5.02c-4.43,0.2-9.02,1.65-12.11,5.02
			C263.4,99.69,261.04,104.06,261.34,108.58L261.34,108.58z"/>
	</g>
</g>
<g>
	<g>
		<path class="st1" d="M280.67,185.18c4.09,12.69,11.1,24.06,16.26,36.29c-0.58-1.36-1.15-2.73-1.73-4.09
			c1.54,3.7,2.87,7.47,3.8,11.37c0.98,4.1,4.28,8.13,7.87,10.24c1.97,1.25,4.09,1.93,6.37,2.03c2.28,0.51,4.55,0.41,6.83-0.31
			c4.14-1.34,8.14-3.91,10.24-7.87c2.2-4.16,2.84-8.57,1.73-13.2c-3.44-14.37-11.6-26.95-17.35-40.41c0.58,1.36,1.15,2.73,1.73,4.09
			c-1-2.38-1.92-4.79-2.72-7.25c-1.36-4.22-3.99-7.97-7.87-10.24c-1.97-1.25-4.09-1.93-6.37-2.03c-2.28-0.51-4.55-0.41-6.83,0.31
			c-4.14,1.34-8.14,3.91-10.24,7.87C280.3,175.96,279.25,180.77,280.67,185.18L280.67,185.18z"/>
	</g>
</g>
<g>
	<g>
		<path class="st1" d="M989.23,535.27c-1.66,33.48,1.34,66.98,0,100.46c-0.37,9.36-1.11,18.7-2.35,27.98
			c0.2-1.52,0.41-3.04,0.61-4.55c-2.13,15.54-5.97,30.74-9.05,46.1c-3.36,16.76-5.76,33.7-7.75,50.67
			c-1.84,15.71-3.22,31.47-4.47,47.24c-1.26,15.83-2.6,31.67-3.38,47.54c-0.88,17.92-0.88,35.92,1.31,53.76
			c-0.09,2.36,0.4,4.56,1.48,6.6c0.69,2.12,1.87,3.96,3.54,5.51c2.97,2.97,7.85,5.21,12.11,5.02c4.43-0.2,9.02-1.65,12.11-5.02
			c2.85-3.11,5.56-7.72,5.02-12.11c-2.58-20.98-2.11-42.17-0.78-63.23c1.31-20.77,2.98-41.54,4.91-62.26
			c1.1-11.78,2.37-23.54,3.94-35.26c-0.2,1.52-0.41,3.04-0.61,4.55c1.84-13.61,4.13-27.15,6.99-40.58
			c3.11-14.63,6.3-29.15,8.28-43.98c3.63-27.25,2.72-54.76,2.12-82.16c-0.34-15.42-0.54-30.86,0.22-46.27
			c0.21-4.25-2.06-9.16-5.02-12.11c-2.97-2.97-7.85-5.21-12.11-5.02C996.7,518.57,989.71,525.66,989.23,535.27L989.23,535.27z"/>
	</g>
</g>
<g>
	<g>
		<path class="st1" d="M1151.49,1255.67c-3-1.47-5.8-3.27-8.46-5.29c1.16,0.89,2.31,1.79,3.47,2.68c-6.94-5.36-12.81-12-18.67-18.49
			c-6.07-6.73-11.98-13.6-17.71-20.61c-3.27-4-6.48-8.04-9.64-12.13c0.89,1.16,1.79,2.31,2.68,3.47
			c-10.81-14.01-20.97-28.53-30.4-43.5c-2.66-4.23-5.27-8.49-7.82-12.79c-9.86,5.76-19.72,11.53-29.58,17.29
			c15.42,22.22,31.82,43.77,48.96,64.69c16.28,19.86,33.3,39.11,50.94,57.78c17.71,18.75,36.02,36.92,54.83,54.57
			c18.61,17.46,37.59,34.62,57.24,50.91c10.62,8.8,21.53,17.34,33.03,24.97c11.51,7.63,23.59,13.92,36.35,19.2
			c2.83,1.17,5.71,2.26,8.61,3.26c4.04,1.4,9.6,0.38,13.2-1.73c3.55-2.08,6.94-6.15,7.87-10.24c1-4.38,0.78-9.31-1.73-13.2
			c-0.89-1.16-1.79-2.31-2.68-3.47c-2.14-2.12-4.66-3.59-7.56-4.41c-3.21-1.11-6.37-2.32-9.5-3.63c1.36,0.58,2.73,1.15,4.09,1.73
			c-17.6-7.45-33.65-17.98-48.74-29.62c1.16,0.89,2.31,1.79,3.47,2.68c-14.02-10.84-27.35-22.57-40.58-34.34
			c-13.41-11.93-26.61-24.09-39.56-36.51c-12.95-12.42-25.65-25.1-38.07-38.05c-12.46-13.01-24.64-26.29-36.47-39.88
			c-11.77-13.51-23.21-27.31-34.26-41.42c-1.39-1.77-2.77-3.55-4.15-5.33c0.89,1.16,1.79,2.31,2.68,3.47
			c-9.78-12.67-19.25-25.58-28.38-38.73c-2.58-3.72-5.75-6.64-10.24-7.87c-4.1-1.13-9.56-0.62-13.2,1.73
			c-3.66,2.36-6.88,5.87-7.87,10.24c-1.02,4.48-0.67,9.16,1.73,13.2c9.94,16.75,20.75,32.98,32.39,48.6
			c12.41,16.66,25.56,32.75,39.63,48.03c7.84,8.51,16.32,17.16,26.83,22.32c1.97,1.25,4.09,1.93,6.37,2.03
			c2.28,0.51,4.55,0.41,6.83-0.31c3.97-1.09,8.28-4.17,10.24-7.87c2.1-3.98,3.15-8.79,1.73-13.2
			C1158.04,1261.84,1155.47,1257.63,1151.49,1255.67L1151.49,1255.67z"/>
	</g>
</g>
<g>
	<g>
		<path class="st1" d="M1385.09,1444.15c0.57,1.26,1.12,2.52,1.66,3.79c-0.58-1.36-1.15-2.73-1.73-4.09
			c4.98,11.89,8.37,24.4,10.09,37.17c-0.2-1.52-0.41-3.04-0.61-4.55c0.54,4.1,0.91,8.23,1.11,12.36c0.22,4.52,1.76,8.86,5.02,12.11
			c2.97,2.97,7.85,5.21,12.11,5.02c4.43-0.2,9.02-1.65,12.11-5.02c2.99-3.26,5.24-7.56,5.02-12.11c-0.52-10.68-2-21.43-4.51-31.83
			c-2.51-10.41-6.28-20.4-10.69-30.14c-1.08-2-2.55-3.6-4.41-4.81c-1.65-1.51-3.6-2.54-5.82-3.07c-2.28-0.71-4.55-0.82-6.83-0.31
			c-2.28,0.1-4.4,0.78-6.37,2.03c-3.66,2.36-6.88,5.87-7.87,10.24c-0.2,1.52-0.41,3.04-0.61,4.55
			C1382.76,1438.59,1383.54,1441.48,1385.09,1444.15L1385.09,1444.15z"/>
	</g>
</g>
<g>
	<g>
		<path class="st1" d="M243.39,219.19c-18.52,43.32-46.13,81.74-72.65,120.4c-27.36,39.89-53.75,81.04-68.51,127.5
			c-8.62,27.12-11.73,55.57-12.54,83.92c-0.85,29.93-0.78,59.91-0.81,89.84c-0.06,60.52,0.73,121.04,2.4,181.54
			c1.46,53.24,4.81,106.78-0.13,159.94c-0.59,6.4-1.32,12.78-2.18,19.14c0.33-2.44,0.65-4.87,0.98-7.31
			c-3.74,27.09-10.13,53.78-20.69,79.06c0.92-2.19,1.85-4.38,2.77-6.57c-3.83,9.03-8.16,17.82-13.02,26.34
			c-7.13,12.5-3.36,30.64,9.87,37.63c13.06,6.9,30.02,3.48,37.63-9.87c38.14-66.92,43.28-145.43,41.98-220.79
			c-0.68-39.76-2.39-79.5-3.22-119.26c-0.88-42.27-1.35-84.55-1.39-126.82c-0.02-23.74,0.09-47.49,0.33-71.23
			c0.24-23.22,0.22-46.54,3.28-69.6c-0.33,2.44-0.65,4.87-0.98,7.31c2.97-21.23,8.96-41.75,17.21-61.51
			c-0.92,2.19-1.85,4.38-2.77,6.57c25.85-61.12,69.92-111.87,103.9-168.31c9.73-16.16,18.62-32.81,26.04-50.16
			c3.03-7.09,4.91-13.42,2.77-21.19c-1.76-6.38-6.69-13.29-12.64-16.43c-6.38-3.37-14.11-5.06-21.19-2.77
			C253.5,208.6,246.12,212.79,243.39,219.19L243.39,219.19z"/>
	</g>
</g>
<g>
	<g>
		<path class="st1" d="M619.43,1158.25c-0.79,17.94-2.38,35.83-4.76,53.63c0.18-1.33,0.36-2.66,0.54-3.99
			c-2.58,19.19-6.07,38.25-10.47,57.1c-4.37,18.7-9.62,37.19-15.75,55.39c-3.49,10.36-7.26,20.62-11.31,30.77
			c-0.63,1.99-0.71,3.99-0.27,5.98c0.09,2,0.68,3.86,1.78,5.58c1.82,3.11,5.39,6.08,8.96,6.89c3.84,0.87,8.15,0.69,11.56-1.51
			c1.01-0.78,2.02-1.56,3.04-2.35c1.86-1.87,3.14-4.08,3.86-6.62c9.77-24.51,17.93-49.65,24.4-75.23
			c6.77-26.74,11.6-53.91,14.84-81.3c1.74-14.73,2.93-29.52,3.58-44.34c0.16-3.74-1.79-8-4.39-10.61c-2.6-2.6-6.87-4.56-10.61-4.39
			c-3.88,0.17-7.9,1.45-10.61,4.39C621.06,1150.65,619.61,1154.13,619.43,1158.25L619.43,1158.25z"/>
	</g>
</g>
<g>
	<g>
		<path class="st1" d="M623.8,1162.04c3.01,31.58-0.73,63.21-3.8,94.62c-1.54,15.77-2.93,31.57-3.22,47.42
			c-0.29,15.64,0.48,31.27,0.92,46.9c0.49,17.5,0.56,35.07-1.75,52.46c0.18-1.33,0.36-2.66,0.54-3.99
			c-0.68,5.02-1.56,10.01-2.67,14.96c-0.88,3.91-0.55,8.04,1.51,11.56c1.82,3.11,5.39,6.08,8.96,6.89
			c3.84,0.87,8.15,0.69,11.56-1.51c3.2-2.06,6.03-5.14,6.89-8.96c3.89-17.33,5.19-35.18,5.23-52.91
			c0.04-16.63-0.91-33.24-1.19-49.86c-0.28-16.87,0.55-33.67,2.04-50.47c1.48-16.79,3.43-33.54,4.72-50.35
			c1.29-16.8,1.93-33.7,0.77-50.52c-0.14-2.07-0.32-4.15-0.51-6.22c0.08-2.07-0.35-3.99-1.29-5.78c-0.6-1.86-1.64-3.47-3.1-4.83
			c-2.6-2.6-6.87-4.56-10.61-4.39c-3.88,0.17-7.9,1.45-10.61,4.39C625.65,1154.2,623.43,1158.14,623.8,1162.04L623.8,1162.04z"/>
	</g>
</g>
<g>
	<g>
		<path class="st0" d="M356.74,249.99c1.1,0.82,2.2,1.65,3.29,2.5c-1.01-0.78-2.02-1.56-3.04-2.35
			c12.65,9.77,24.31,20.8,34.78,32.87c2.98,3.43,5.85,6.96,8.64,10.55c-0.78-1.01-1.56-2.02-2.35-3.04
			c10.44,13.53,19.44,28.13,26.79,43.56c1.54,3.23,5.63,5.98,8.96,6.89c3.59,0.99,8.37,0.54,11.56-1.51
			c3.2-2.06,6.02-5.14,6.89-8.96c0.18-1.33,0.36-2.66,0.54-3.99c-0.01-2.71-0.69-5.23-2.05-7.57c-6.58-13.8-14.48-26.97-23.56-39.27
			c-9.81-13.29-20.61-25.79-32.75-37.01c-7.16-6.62-14.76-12.75-22.58-18.57c-1.72-1.1-3.58-1.69-5.58-1.78
			c-1.99-0.45-3.99-0.36-5.98,0.27c-3.48,0.96-7.25,3.65-8.96,6.89c-1.84,3.48-2.76,7.7-1.51,11.56c0.5,1.19,1.01,2.39,1.51,3.58
			C352.69,246.86,354.49,248.65,356.74,249.99L356.74,249.99z"/>
	</g>
</g>
<g>
	<g>
		<path class="st2" d="M989.93,528.8c-11.08,80.78-19.37,161.9-24.44,243.28c-2.45,39.37-4.28,78.8-5.16,118.23
			c-0.86,38.82-0.05,77.54,5.2,116.05c5.12,37.51,15.57,73.53,31.99,107.68c15.52,32.27,36,61.67,57.94,89.86
			c21.76,27.95,45.37,54.42,68.79,80.98c24.45,27.73,49.11,55.3,75.18,81.52c52.38,52.66,111.37,98.35,177.77,132
			c8.16,4.14,16.42,8.08,24.75,11.87c9.5,4.32,21.97,3.04,27.36-7.18c4.63-8.77,2.99-22.74-7.18-27.36
			c-32.54-14.8-63.83-32.28-93.43-52.34c-7.34-4.97-14.57-10.1-21.69-15.38c-1.84-1.36-3.67-2.73-5.49-4.12
			c-0.68-0.52-1.36-1.04-2.05-1.56c-2.43-1.82,2.36,1.86-0.03-0.02c-3.61-2.83-7.2-5.67-10.76-8.56
			c-14.31-11.64-28.11-23.91-41.5-36.61c-26.39-25.03-51.15-51.71-75.38-78.82c-23.6-26.4-47.21-52.87-69.84-80.11
			c-5.48-6.6-10.89-13.25-16.18-20c-0.54-0.69-4.68-6.08-1.95-2.5c-1.17-1.54-2.35-3.07-3.51-4.61c-2.66-3.52-5.28-7.06-7.86-10.64
			c-10.12-14-19.64-28.44-28.2-43.44c-4.2-7.35-8.16-14.84-11.85-22.45c-1.78-3.69-3.5-7.41-5.16-11.16c-0.44-1-0.87-2.01-1.31-3.01
			c0.09,0.21,1.27,3.13,0.43,0.99c-0.91-2.29-1.86-4.57-2.74-6.87c-6.48-16.83-11.41-34.22-15.01-51.89
			c-0.88-4.31-1.68-8.64-2.42-12.98c-0.39-2.32-0.76-4.64-1.11-6.96c-0.13-0.87-0.26-1.74-0.39-2.62c-0.08-0.52-0.8-6.36-0.24-1.68
			c-1.08-9.08-2.06-18.16-2.73-27.28c-1.34-18.32-1.79-36.69-1.75-55.05c0.08-38.54,1.79-77.11,3.85-115.59
			c4.2-78.67,11.29-157.19,21.25-235.34c0.6-4.71,1.21-9.41,1.83-14.12c0.17-1.25,0.33-2.51,0.5-3.76c0.09-0.67,0.53-3.93,0.04-0.33
			c0.34-2.51,0.68-5.02,1.03-7.52c0.76-5.58,0.95-10.34-2.02-15.41c-2.43-4.15-7.18-8.11-11.95-9.19
			C1005.13,512.69,991.45,517.72,989.93,528.8L989.93,528.8z"/>
	</g>
</g>
<g>
	<g>
		<path class="st2" d="M248.86,83.03c1.78,20.75,3.55,41.52,3.7,62.36c0.08,10.54-0.26,21.1-1.24,31.6c-0.2,2.17-0.43,4.34-0.69,6.5
			c-0.49,4.22-0.28,2.09-0.15,1.16c-0.16,1.08-0.33,2.16-0.5,3.23c-0.77,4.79-1.71,9.55-2.8,14.27c-1.86,8.06-4.18,16-6.89,23.82
			c-1.21,3.49-2.49,6.95-3.84,10.39c-0.42,1.06-0.84,2.11-1.27,3.16c-0.11,0.29-1.2,2.92-0.3,0.76c0.9-2.16-0.2,0.47-0.33,0.75
			c-0.57,1.3-1.14,2.6-1.73,3.9c-6.71,14.89-14.56,29.23-22.95,43.23c-34.45,57.49-78.1,110.16-99.17,174.73
			c-12.96,39.7-15.19,82.06-16.11,123.5c-0.96,43.01-0.86,86.04-0.9,129.05c-0.09,84.22-0.67,168.72-10.74,252.45
			c-0.29,2.4-0.58,4.79-0.89,7.19c-0.13,1.05-0.71,5.51-0.58,4.52c0.29-2.19-0.28,2.03-0.34,2.47c-0.14,1.03-0.28,2.05-0.43,3.07
			c-0.39,2.73-0.78,5.46-1.19,8.19c-1.48,9.89-3.1,19.76-4.88,29.6c-3.49,19.3-7.6,38.5-12.41,57.52
			c-4.8,18.96-10.3,37.75-16.61,56.27c-3.09,9.08-6.38,18.1-9.87,27.04c-1.74,4.47-3.54,8.92-5.38,13.35
			c-0.89,2.13-0.16,0.38,0.02-0.04c-0.54,1.26-1.08,2.52-1.63,3.78c-1.09,2.52-2.2,5.02-3.33,7.53c-3.95,8.77-8.13,17.42-12.5,25.99
			c-4.75,9.31-2.75,22.12,7.18,27.36c9.13,4.82,22.29,2.78,27.36-7.18c36.49-71.54,58.32-149.35,70.32-228.54
			c12.7-83.82,15.35-168.54,15.8-253.19c0.23-43.43-0.04-86.86,0.43-130.29c0.23-21.13,0.47-42.29,1.47-63.4
			c0.5-10.52,1.21-21.04,2.34-31.52c0.27-2.52,0.56-5.04,0.89-7.56c0.31-2.36,0.08-0.55,0.01-0.07c0.2-1.43,0.42-2.87,0.64-4.3
			c0.78-5,1.67-9.99,2.7-14.95c1.97-9.48,4.45-18.85,7.48-28.05c1.26-3.81,2.61-7.6,4.04-11.35c0.72-1.87,1.47-3.74,2.21-5.6
			c0.11-0.27,1.2-2.93,0.31-0.79c-1.01,2.44,0.83-1.9,1.03-2.35c6.62-15.03,14.4-29.52,22.76-43.64
			c17.07-28.82,36.53-56.11,54.48-84.38c18.25-28.74,34.86-58.79,45.58-91.23c12.78-38.66,13.99-79.45,11.32-119.75
			c-0.68-10.21-1.55-20.41-2.42-30.6c-0.89-10.4-8.56-20.51-20-20C258.79,63.48,247.91,71.87,248.86,83.03L248.86,83.03z"/>
	</g>
</g>
<g>
	<g>
		<path class="st2" d="M620.13,1165.4c-0.31,3.45-0.64,6.89-1.03,10.33c-0.19,1.72-0.39,3.44-0.6,5.16
			c-0.08,0.64-0.16,1.29-0.24,1.93c-0.39,3.11-0.18,1.06,0.12-0.81c-1.1,6.84-2.03,13.69-3.29,20.5
			c-2.54,13.83-5.72,27.53-9.51,41.07c-3.74,13.33-8.07,26.49-12.98,39.43c-1.15,3.03-2.33,6.05-3.55,9.06
			c-0.18,0.45-1.86,4.83-1.97,4.8c0.01,0,2.01-4.68,0.5-1.19c-0.43,0.99-0.85,1.99-1.29,2.98c-2.76,6.35-5.67,12.63-8.72,18.84
			c-12.41,25.31-27.25,49.28-43.87,72.03c-1.95,2.68-3.93,5.34-5.93,7.99c-0.93,1.24-1.87,2.47-2.8,3.7
			c-0.51,0.66-1.03,1.49-1.61,2.11c3.63-3.86,0.61-0.79-0.12,0.15c-4.35,5.59-8.77,11.11-13.24,16.61
			c-8.95,11-18.1,21.84-27.26,32.66c-19.14,22.62-38.25,45.26-56.16,68.89c-16.6,21.9-31.93,44.75-46.41,68.1
			c-29.27,47.18-55.1,96.35-81.83,144.98c-26.46,48.14-53.88,95.94-86.24,140.42c-2.02,2.78-4.06,5.54-6.12,8.29
			c-0.9,1.2-1.81,2.4-2.71,3.6c-0.72,0.95-4.88,6.36-1.18,1.58c-3.4,4.4-5.86,8.33-5.86,14.14c0,4.91,2.18,10.76,5.86,14.14
			c3.81,3.5,8.82,6.1,14.14,5.86c4.9-0.22,10.99-1.78,14.14-5.86c34.99-45.27,64.67-93.98,92.5-143.9
			c27.03-48.49,52.62-97.79,81.12-145.45c14.31-23.94,29.36-47.46,45.63-70.12c4.02-5.6,8.12-11.15,12.3-16.64
			c0.54-0.7,1.08-1.41,1.61-2.11c2.09-2.75-0.4,0.52-0.69,0.89c1.11-1.38,2.17-2.8,3.27-4.19c2.32-2.96,4.67-5.91,7.03-8.85
			c9.03-11.23,18.28-22.28,27.58-33.28c37.59-44.5,76-88.93,103.69-140.52c27.86-51.9,45.72-108.32,53.43-166.65
			c0.91-6.86,1.67-13.74,2.29-20.63c0.93-10.45-9.86-20.45-20-20C628.5,1145.92,621.13,1154.2,620.13,1165.4L620.13,1165.4z"/>
	</g>
</g>
<g>
	<g>
		<path class="st0" d="M288.48,1901.37c28.86-0.74,57.81-4.45,85.94-10.92c28.17-6.48,55.42-16.14,81.72-28.09
			c12.8-5.82,25.2-12.43,37.47-19.28c12.5-6.97,25.06-13.89,37.12-21.61c22.04-14.11,42.67-30.81,60.91-49.59
			c18.16-18.7,34.34-39.66,47.77-62.01c1.57-2.61,3.09-5.23,4.58-7.88c2.89-5.14,3.84-11.61,2.27-17.34
			c-1.44-5.22-5.47-10.88-10.34-13.45c-5.22-2.76-11.55-4.14-17.34-2.27c-5.53,1.79-10.53,5.16-13.45,10.34
			c-7.5,13.33-15.97,26.09-25.31,38.21c1.17-1.52,2.35-3.04,3.52-4.55c-12.91,16.68-27.45,32.1-43.39,45.92
			c-4.52,3.92-9.16,7.71-13.9,11.38c1.52-1.17,3.04-2.35,4.55-3.52c-12.15,9.37-24.99,17.72-38.26,25.41
			c-14.66,8.49-29.45,16.89-44.58,24.52c-8.01,4.04-16.16,7.79-24.42,11.29c1.79-0.76,3.58-1.51,5.37-2.27
			c-25.65,10.8-52.4,18.95-79.72,24.26c-7.7,1.5-15.45,2.77-23.23,3.82c1.99-0.27,3.99-0.54,5.98-0.8
			c-14.35,1.92-28.79,3.07-43.26,3.44c-5.86,0.15-11.73,2.41-15.91,6.59c-3.9,3.9-6.84,10.31-6.59,15.91
			c0.26,5.82,2.17,11.85,6.59,15.91C276.91,1898.76,282.44,1901.53,288.48,1901.37L288.48,1901.37z"/>
	</g>
</g>
<g>
	<g>
		<path class="st0" d="M663.17,1545.56c-3.5,25.89-9.58,51.41-18.26,76.06c-2.47,7.02-5.16,13.96-8.04,20.82
			c0.76-1.79,1.51-3.58,2.27-5.37c-11.76,27.84-26.89,54.21-45.33,78.18c1.17-1.52,2.35-3.04,3.52-4.55
			c-17.49,22.63-37.88,42.75-60.48,60.25c1.52-1.17,3.04-2.35,4.55-3.52c-23.41,18.04-48.89,33.25-75.5,46.05
			c-7.58,3.65-15.26,7.1-23,10.38c1.79-0.76,3.58-1.51,5.37-2.27c-27.35,11.54-55.59,20.83-84.22,28.63
			c-30.44,8.3-61.31,14.93-92.27,20.96c-17.44,3.4-34.92,6.6-52.39,9.8c-5.27,0.97-10.83,5.87-13.45,10.34
			c-2.82,4.82-4.02,11.93-2.27,17.34c1.76,5.44,5.14,10.7,10.34,13.45c5.61,2.97,11.09,3.41,17.34,2.27
			c44.6-8.17,89.26-16.36,133.19-27.72c42.72-11.04,84.64-25.31,124.42-44.49c37.21-17.94,72.27-40.78,102.71-68.78
			c29.95-27.54,55.02-60.84,73.79-96.91c18.69-35.93,32.04-74.81,38.93-114.73c0.81-4.72,1.54-9.46,2.18-14.21
			c0.94-2.99,1.07-5.98,0.4-8.97c-0.14-2.99-1.03-5.78-2.67-8.37c-2.73-4.67-8.08-9.12-13.45-10.34
			c-5.76-1.31-12.22-1.03-17.34,2.27C668.97,1535.04,663.93,1539.94,663.17,1545.56L663.17,1545.56z"/>
	</g>
</g>
<g>
	<g>
		<path class="st2" d="M273.2,1777.78c-13.34,27.66-28.65,54.36-45.81,79.83c-4.67,6.93-9.39,13.88-14.48,20.51
			c1.04-1.35,2.08-2.7,3.13-4.05c-3.13,4.05-6.53,7.91-10.57,11.08c1.35-1.04,2.7-2.08,4.05-3.13c-2.01,1.55-4.15,2.89-6.45,3.99
			c-2.33,1.26-4.2,2.97-5.61,5.15c-1.77,1.93-2.96,4.2-3.58,6.8c-0.83,2.66-0.95,5.32-0.36,7.98c0.12,2.66,0.91,5.14,2.37,7.44
			c2.75,4.27,6.85,8.03,11.95,9.19c1.77,0.24,3.54,0.48,5.32,0.71c3.61-0.01,6.97-0.92,10.09-2.73c1.87-0.89,3.65-1.94,5.33-3.15
			c2.89-2.08,5.76-4.26,8.35-6.7c4.15-3.91,7.57-8.52,11.01-13.04c5.56-7.3,10.71-14.94,15.8-22.57
			c10.49-15.74,20.28-31.95,29.34-48.57c5.12-9.39,10.01-18.92,14.65-28.56c1.46-2.3,2.25-4.77,2.37-7.44
			c0.6-2.66,0.48-5.32-0.36-7.98c-0.62-2.6-1.81-4.87-3.58-6.8c-1.41-2.18-3.28-3.89-5.61-5.15c-4.64-2.45-10.26-3.68-15.41-2.02
			C280.43,1770.12,275.45,1773.13,273.2,1777.78L273.2,1777.78z"/>
	</g>
</g>
</svg>
